<svg width="762" height="645" viewBox="0 0 762 645" fill="none" xmlns="http://www.w3.org/2000/svg">
<g filter="url(#filter0_d_3_8021)">
<path d="M29.5879 635.695H6.01453" stroke="#263238" stroke-miterlimit="10"/>
<path d="M726.515 635.695H38.758" stroke="#263238" stroke-miterlimit="10"/>
<path d="M801.713 635.695H736.608" stroke="#263238" stroke-miterlimit="10"/>
<g opacity="0.15">
<path d="M482.414 635.034C482.485 634.519 489.61 581.694 492.559 508.912C495.283 441.794 495.795 346.35 478.596 259.162L480.273 255.299C489.788 303.713 500.16 387.055 495.2 509.169C492.191 582.177 485.054 635.163 485.054 635.694L482.414 635.034Z" fill="black"/>
<path d="M453.072 315.367C473.03 325.298 484.959 334.81 491.311 340.83C490.561 330.191 485.28 304.97 454.773 275.451C406.437 228.678 312.595 268.578 290.71 278.863C338.761 281.583 402.654 290.291 453.072 315.367Z" fill="black"/>
<path d="M452.264 317.508C400.526 291.756 334.515 283.435 286.262 281.021L286.048 281.133C286.048 281.133 339.653 347.236 404.807 361.851C469.962 376.465 491.311 346.303 491.311 346.303C491.384 345.54 491.42 344.771 491.418 344.001C485.483 338.11 473.292 327.954 452.264 317.508Z" fill="black"/>
<path d="M521.308 355.235C506.726 368.401 498.507 379.152 494.285 385.623C493.357 376.899 493.988 355.299 514.243 323.656C546.356 273.519 627.234 280.987 646.264 283.514C608.192 298.242 558.155 321.934 521.308 355.235Z" fill="black"/>
<path d="M522.27 356.732C560.081 322.626 611.842 298.628 650.164 284.078H650.354C650.354 284.078 616.802 351.131 566.646 379.893C516.49 408.655 495.046 389.953 495.046 389.953C494.878 389.361 494.743 388.753 494.641 388.134C498.566 381.921 506.892 370.606 522.27 356.732Z" fill="black"/>
<path d="M464.586 515.881C479.167 529.047 487.374 539.799 491.608 546.285C492.524 537.545 491.894 515.945 471.639 484.302C439.526 434.166 358.648 441.65 339.618 444.161C377.69 458.968 427.727 482.58 464.586 515.881Z" fill="black"/>
<path d="M463.646 517.378C425.824 483.272 374.074 459.274 335.74 444.74H335.562C335.562 444.74 369.102 511.761 419.259 540.507C469.415 569.253 490.859 550.583 490.859 550.583C491.033 549.987 491.173 549.373 491.275 548.748C487.315 542.664 479.001 531.252 463.646 517.378Z" fill="black"/>
<path d="M531.179 466.903C512.042 479.409 500.85 490.451 494.963 497.259C494.963 486.572 498.376 460.771 526.624 427.39C571.368 374.468 667.636 401.83 690.151 409.186C642.576 418.199 579.563 435.292 531.179 466.903Z" fill="black"/>
<path d="M532.154 468.916C581.787 436.565 646.905 419.504 694.73 410.748H694.956C694.956 410.748 646.358 483.595 582.572 506.724C518.785 529.853 495.343 502.555 495.343 502.555C495.214 501.803 495.127 501.039 495.081 500.27C500.517 493.783 511.958 482.082 532.154 468.916Z" fill="black"/>
<path d="M467.392 201.928C475.848 228.308 479 246.56 480.166 256.925C485.339 248.878 495.187 226.344 489.906 176.031C481.581 96.4075 395.434 32.0748 374.834 17.75C406.555 66.6152 445.995 135.245 467.392 201.928Z" fill="black"/>
<path d="M465.68 202.604C443.7 134.231 402.643 63.7659 370.613 14.8846L370.411 14.7559C370.411 14.7559 372.064 112.921 409.22 186.75C446.376 260.579 477.288 260.659 477.288 260.659C477.749 260.201 478.186 259.701 478.597 259.162C477.598 249.344 474.624 230.416 465.68 202.604Z" fill="black"/>
</g>
<g opacity="0.15">
<path d="M239.841 635.309C242.904 610.391 244.925 585.258 245.895 560.032C247.513 519.987 247.822 463.058 237.569 411.006L238.568 408.704C244.266 437.579 250.462 487.313 247.477 560.193C246.52 585.497 244.491 610.706 241.399 635.695L239.841 635.309Z" fill="black"/>
<path d="M222.333 444.483C234.227 450.406 241.363 456.088 245.146 459.661C244.694 453.32 241.577 438.271 223.344 420.646C194.49 392.737 138.494 416.558 125.435 422.69C154.087 424.38 192.242 429.579 222.333 444.483Z" fill="black"/>
<path d="M221.846 445.82C190.922 430.497 151.565 425.492 122.782 424.043H122.651C122.651 424.043 154.646 463.492 193.527 472.216C232.407 480.94 245.146 462.881 245.146 462.881C245.191 462.427 245.211 461.97 245.205 461.513C241.661 458.101 234.394 452.049 221.846 445.82Z" fill="black"/>
<path d="M263.045 468.321C257.123 473.419 251.704 479.514 246.917 486.46C246.37 481.262 246.739 468.369 258.811 449.441C277.96 419.52 326.261 423.979 337.607 425.492C314.89 434.312 285.037 448.459 263.045 468.321Z" fill="black"/>
<path d="M263.616 469.222C286.214 448.878 317.067 434.553 339.939 425.878H340.058C340.058 425.878 320.028 465.875 290.104 483.032C260.179 500.19 247.369 489.036 247.369 489.036C247.274 488.678 247.195 488.312 247.132 487.941C249.475 484.255 254.434 477.495 263.616 469.222Z" fill="black"/>
<path d="M229.195 564.201C235.115 569.303 240.534 575.398 245.323 582.34C245.87 577.125 245.49 564.233 233.429 545.321C214.28 515.4 165.98 519.858 154.633 521.371C177.338 530.192 207.204 544.275 229.195 564.201Z" fill="black"/>
<path d="M228.624 565.085C206.026 544.74 175.162 530.416 152.29 521.74H152.183C152.183 521.74 172.2 561.737 202.137 578.894C232.074 596.052 244.8 584.914 244.8 584.914C244.903 584.563 244.986 584.203 245.05 583.836C242.766 580.118 237.795 573.374 228.624 565.085Z" fill="black"/>
<path d="M268.933 534.972C257.515 542.424 250.83 549.023 247.322 553.079C247.322 546.641 249.356 531.318 266.221 511.392C292.923 479.813 350.358 496.134 363.75 500.528C335.407 505.904 297.811 516.108 268.933 534.972Z" fill="black"/>
<path d="M269.516 536.226C299.131 516.912 338 506.724 366.533 501.509H366.664C366.664 501.509 337.667 544.966 299.607 558.776C261.547 572.585 247.548 556.297 247.548 556.297C247.478 555.845 247.426 555.388 247.393 554.929C250.664 551.018 257.467 544.032 269.516 536.226Z" fill="black"/>
<path d="M230.873 376.884C235.916 392.625 237.796 403.522 238.497 409.702C241.59 404.874 247.465 391.402 244.313 361.417C239.318 313.92 187.937 275.516 175.639 266.97C194.538 296.102 218.1 337.048 230.873 376.884Z" fill="black"/>
<path d="M229.849 377.254C216.766 336.453 192.206 294.396 173.116 265.231H172.997C172.997 265.231 173.984 323.786 196.154 367.871C218.324 411.956 236.772 411.972 236.772 411.972C237.048 411.701 237.31 411.405 237.557 411.087C236.962 405.147 235.19 393.849 229.849 377.254Z" fill="black"/>
</g>
<g opacity="0.15">
<path d="M92.6426 635.404C94.9616 616.554 96.4904 597.542 97.2217 578.459C98.411 548.151 98.6846 505.08 90.918 465.695L91.6673 463.957C95.9847 485.798 100.647 523.429 98.411 578.571C97.6796 597.714 96.1468 616.785 93.8201 635.693L92.6426 635.404Z" fill="black"/>
<path d="M79.3945 491.158C85.482 493.982 91.2808 497.838 96.6523 502.634C96.3193 497.805 93.9406 486.458 80.1557 473.131C58.3306 452.014 15.9292 470.025 6.0812 474.66C27.7635 475.819 56.6298 479.747 79.3945 491.158Z" fill="black"/>
<path d="M79.0264 492.043C55.6671 480.438 25.8493 476.656 4.09563 475.562H4.00046C4.00046 475.562 28.1924 505.45 57.5938 512.082C86.9952 518.713 96.653 505.032 96.653 505.032C96.6729 504.684 96.6729 504.334 96.653 503.986C94.0245 501.33 88.5177 496.743 79.0264 492.043Z" fill="black"/>
<path d="M110.2 509.073C105.72 512.927 101.62 517.535 97.9969 522.786C97.5806 518.858 97.8661 509.105 107.012 494.812C121.499 472.182 158.037 475.498 166.624 476.689C149.426 483.336 126.839 494.04 110.2 509.073Z" fill="black"/>
<path d="M110.626 509.749C127.706 494.346 151.065 483.514 168.371 476.947H168.466C168.466 476.947 153.313 507.255 130.62 520.131C107.926 533.007 98.2925 524.686 98.2925 524.686C98.2925 524.686 98.2092 524.396 98.1022 523.865C101.788 518.418 106.001 513.67 110.626 509.749Z" fill="black"/>
<path d="M84.5907 581.598C89.0688 585.455 93.1655 590.069 96.7819 595.327C97.1982 591.384 96.9127 581.63 87.7783 567.338C73.2798 544.708 36.7421 548.023 28.1548 549.214C45.3532 555.862 67.9514 566.565 84.5907 581.598Z" fill="black"/>
<path d="M84.1514 582.275C67.0838 566.872 43.7125 556.04 26.4071 549.473H26.3238C26.3238 549.473 41.417 579.683 64.1104 592.737C86.8037 605.79 96.4377 597.276 96.4377 597.276C96.5199 597.011 96.5836 596.736 96.6279 596.455C92.9592 590.99 88.7625 586.221 84.1514 582.275Z" fill="black"/>
<path d="M114.658 559.483C108.797 563.112 103.302 567.737 98.3041 573.244C98.3041 568.416 99.8384 556.763 112.577 541.698C132.796 517.796 176.232 530.157 186.401 533.473C164.945 537.497 136.495 545.206 114.658 559.483Z" fill="black"/>
<path d="M115.099 560.368C137.507 545.754 166.908 538.044 188.496 534.101H188.591C188.591 534.101 166.659 566.999 137.852 577.429C109.045 587.859 98.4836 575.546 98.4836 575.546C98.4232 575.207 98.3795 574.863 98.3527 574.516C100.886 571.635 105.977 566.339 115.099 560.368Z" fill="black"/>
<path d="M85.8527 439.847C88.5467 447.761 90.4851 456.106 91.6212 464.682C94 461.045 98.4006 450.84 96.0219 428.162C92.2515 392.221 53.3708 363.17 44.0699 356.699C58.3662 378.766 76.195 409.749 85.8527 439.847Z" fill="black"/>
<path d="M85.0782 440.153C75.1587 409.282 56.6044 377.478 42.1535 355.411H42.0702C42.0702 355.411 42.8196 399.705 59.5898 433.071C76.36 466.436 90.0973 466.018 90.0973 466.018C90.2389 466.074 90.3888 466.08 90.5326 466.035C90.6764 465.99 90.8092 465.895 90.918 465.76C90.466 461.253 89.122 452.707 85.0782 440.153Z" fill="black"/>
</g>
<g opacity="0.15">
<path d="M752.356 635.404C750.044 616.553 748.516 597.541 747.777 578.459C746.588 548.151 746.314 505.08 754.093 465.695L753.332 463.957C749.014 485.798 744.352 523.429 746.588 578.571C747.319 597.715 748.856 616.786 751.191 635.693L752.356 635.404Z" fill="black"/>
<path d="M765.606 491.158C759.518 493.982 753.719 497.838 748.348 502.634C748.681 497.805 751.071 486.458 764.844 473.131C786.67 452.014 829.071 470.025 838.919 474.66C817.248 475.819 788.347 479.747 765.606 491.158Z" fill="black"/>
<path d="M765.974 492.043C789.333 480.438 819.151 476.656 840.905 475.562H841C841 475.562 816.82 505.45 787.407 512.082C757.993 518.713 748.347 505.032 748.347 505.032C748.328 504.684 748.328 504.334 748.347 503.986C750.976 501.33 756.483 496.743 765.974 492.043Z" fill="black"/>
<path d="M734.824 509.073C739.306 512.922 743.407 517.531 747.027 522.786C747.443 518.858 747.158 509.105 738.012 494.812C723.525 472.182 686.987 475.498 678.4 476.689C695.575 483.336 718.173 494.04 734.824 509.073Z" fill="black"/>
<path d="M734.372 509.748C717.293 494.345 693.933 483.513 676.628 476.946H676.545C676.545 476.946 691.685 507.254 714.331 520.13C736.977 533.006 746.658 524.685 746.658 524.685C746.658 524.685 746.742 524.395 746.849 523.864C743.178 518.421 738.981 513.673 734.372 509.748Z" fill="black"/>
<path d="M760.42 581.598C755.936 585.452 751.836 590.066 748.217 595.327C747.801 591.384 748.086 581.63 757.232 567.338C771.695 544.708 808.257 548.088 816.892 549.214C799.646 555.862 777.047 566.565 760.42 581.598Z" fill="black"/>
<path d="M760.848 582.275C777.928 566.872 801.287 556.04 818.593 549.473H818.676C818.676 549.473 803.535 579.683 780.889 592.737C758.243 605.79 748.562 597.276 748.562 597.276C748.48 597.011 748.416 596.736 748.372 596.455C752.04 590.99 756.237 586.221 760.848 582.275Z" fill="black"/>
<path d="M730.34 559.483C736.209 563.11 741.713 567.734 746.718 573.244C746.718 568.416 745.183 556.763 732.445 541.698C712.226 517.796 668.79 530.157 658.621 533.473C680.053 537.497 708.503 545.206 730.34 559.483Z" fill="black"/>
<path d="M729.912 560.367C707.492 545.753 678.091 538.043 656.504 534.1H656.408C656.408 534.1 678.341 566.998 707.147 577.428C735.954 587.858 746.528 575.545 746.528 575.545C746.587 575.206 746.626 574.862 746.646 574.515C741.561 568.807 735.933 564.049 729.912 560.367Z" fill="black"/>
<path d="M759.148 439.847C756.454 447.761 754.515 456.106 753.379 464.682C751.001 461.045 746.6 450.84 748.979 428.162C752.761 392.221 791.63 363.17 800.931 356.699C786.634 378.766 768.806 409.749 759.148 439.847Z" fill="black"/>
<path d="M759.92 440.153C769.839 409.282 788.346 377.478 802.844 355.411H802.928C802.928 355.411 802.19 399.705 785.408 433.071C768.626 466.436 754.675 466.372 754.675 466.372C754.468 466.167 754.273 465.941 754.092 465.696C754.532 461.253 755.876 452.707 759.92 440.153Z" fill="black"/>
</g>
<path d="M129.643 219.634H208.465V635.695H129.643V219.634Z" fill="#263238" stroke="#263238" stroke-miterlimit="10"/>
<path d="M105.585 219.634H184.406V635.695H105.585V219.634Z" fill="white" stroke="#263238" stroke-miterlimit="10"/>
<path d="M307.202 363.77H386.023V635.696H307.202V363.77Z" fill="#263238" stroke="#263238" stroke-miterlimit="10"/>
<path d="M283.145 363.77H361.967V635.696H283.145V363.77Z" fill="white" stroke="#263238" stroke-miterlimit="10"/>
<path d="M491.4 445.549H570.222V635.682H491.4V445.549Z" fill="#263238" stroke="#263238" stroke-miterlimit="10"/>
<path d="M467.343 445.549H546.165V635.682H467.343V445.549Z" fill="white" stroke="#263238" stroke-miterlimit="10"/>
<path d="M452.05 635.696V496.371" stroke="#263238" stroke-width="4" stroke-miterlimit="10"/>
<path d="M452.049 502.138L461.456 509.18L461.67 508.792L455.582 489.897C454.397 483.316 453.22 476.731 452.049 470.142C450.879 476.731 449.705 483.316 448.527 489.897L442.429 508.792L442.597 509.18L452.049 502.138Z" fill="#263238"/>
<path d="M426.62 635.696V496.371" stroke="#263238" stroke-width="4" stroke-miterlimit="10"/>
<path d="M426.62 502.138L436.026 509.18L436.24 508.792L430.153 489.897C428.975 483.316 427.797 476.731 426.62 470.142C425.449 476.731 424.275 483.316 423.098 489.897L417.01 508.792L417.168 509.18L426.62 502.138Z" fill="#263238"/>
<path d="M401.201 635.696V496.371" stroke="#263238" stroke-width="4" stroke-miterlimit="10"/>
<path d="M401.2 502.138L410.596 509.18L410.81 508.792L404.722 489.897C403.552 483.316 402.378 476.731 401.2 470.142C400.022 476.731 398.845 483.316 397.667 489.897L391.591 508.792L391.748 509.18L401.2 502.138Z" fill="#263238"/>
<path d="M375.771 635.696V496.371" stroke="white" stroke-width="4" stroke-miterlimit="10"/>
<path d="M375.771 502.138L385.178 509.18L385.392 508.792L379.293 489.897C378.123 483.316 376.949 476.731 375.771 470.142C374.593 476.731 373.416 483.316 372.238 489.897L366.15 508.792L366.308 509.18L375.771 502.138Z" fill="white"/>
<path d="M273.635 635.695V425.654" stroke="#263238" stroke-width="4" stroke-miterlimit="10"/>
<path d="M273.635 431.422L283.042 438.478L283.256 438.076L277.168 419.181C275.991 412.6 274.813 406.015 273.635 399.426C272.465 406.015 271.291 412.6 270.113 419.181L264.015 438.076L264.183 438.478L273.635 431.422Z" fill="#263238"/>
<path d="M248.204 635.695V425.654" stroke="#263238" stroke-width="4" stroke-miterlimit="10"/>
<path d="M248.206 431.422L257.612 438.478L257.826 438.076L251.739 419.181C250.561 412.6 249.383 406.015 248.206 399.426C247.035 406.015 245.861 412.6 244.684 419.181L238.562 438.076L238.731 438.478L248.206 431.422Z" fill="#263238"/>
<path d="M222.773 635.695V425.654" stroke="#263238" stroke-width="4" stroke-miterlimit="10"/>
<path d="M222.808 431.422L232.215 438.478L232.429 438.076L226.341 419.181C225.156 412.6 223.978 406.015 222.808 399.426C221.638 406.015 220.464 412.6 219.286 419.181L213.199 438.076L213.356 438.478L222.808 431.422Z" fill="#263238"/>
<path d="M197.355 635.695V425.654" stroke="white" stroke-width="4" stroke-miterlimit="10"/>
<path d="M197.356 431.422L206.763 438.478L206.966 438.076L200.878 419.181C199.708 412.6 198.534 406.015 197.356 399.426C196.179 406.015 195.001 412.6 193.823 419.181L187.736 438.076L187.893 438.478L197.356 431.422Z" fill="white"/>
<path d="M480.769 40.6143C480.769 40.6143 485.499 10.6686 502.016 3.06578C518.534 -4.53709 522.472 10.6686 527.189 19.1865C531.907 27.7044 538.99 14.8777 549.217 19.1865C559.445 23.4954 555.52 35.2906 561.81 39.5828C568.1 43.875 579.12 34.2092 586.191 41.7289C593.261 49.2486 594.846 55.6869 594.846 55.6869H445.368C445.368 55.6869 468.969 25.6415 480.769 40.6143Z" fill="white" stroke="#263238" stroke-miterlimit="10"/>
<path d="M212.534 196.565C212.534 196.565 217.252 166.503 233.782 159C250.312 151.497 254.237 166.503 258.955 175.104C263.673 183.705 270.755 170.812 280.983 175.104C291.211 179.397 287.273 191.208 293.576 195.501C299.878 199.793 310.886 190.127 317.956 197.647C325.027 205.166 326.611 211.605 326.611 211.605H177.134C177.134 211.605 200.734 181.543 212.534 196.565Z" fill="white" stroke="#263238" stroke-miterlimit="10"/>
<path d="M697.183 160.713C697.183 160.713 700.243 141.198 710.97 136.324C721.698 131.449 724.258 141.198 727.318 146.771C730.377 152.345 734.985 143.993 741.617 146.771C748.248 149.55 745.713 157.236 749.797 160.081C753.88 162.925 761.036 156.587 765.644 161.461C770.252 166.336 771.264 170.528 771.264 170.528H674.204C674.204 170.528 689.515 150.964 697.183 160.713Z" fill="white" stroke="#263238" stroke-miterlimit="10"/>
<path d="M694.872 572.743C694.872 572.743 699.891 574.629 703.165 574.129C706.44 573.63 709.275 573.589 709.917 577.082C710.558 580.576 709.917 584.014 710.569 586.232C711.222 588.45 713.405 591.334 712.977 595.368C712.55 599.402 711.447 608.801 709.478 607.457C707.509 606.112 704.898 594.564 703.852 592.207C702.805 589.85 699.823 584.236 697.64 583.057C696.235 582.442 694.755 582.123 693.263 582.115L694.872 572.743Z" fill="white" stroke="#263238" stroke-miterlimit="10"/>
<path d="M708.195 592.997C707.112 589.415 706.357 585.695 705.945 581.907C705.655 579.156 704.993 576.485 703.987 574.004C706.924 573.602 709.377 573.852 709.973 577.068C710.626 580.562 709.973 584 710.626 586.218C711.278 588.436 713.461 591.32 713.034 595.354C712.606 599.388 711.504 608.787 709.534 607.442C708.06 606.43 706.159 599.624 704.921 595.284L708.195 592.997Z" fill="#263238" stroke="#263238" stroke-miterlimit="10"/>
<path d="M639.456 483.229C639.67 461.727 646.005 455.808 646.005 455.808C676.543 460.646 682.439 449.361 682.439 449.361L686.141 452.855C692.476 461.173 695.526 473.012 696.617 486.459C697.709 499.906 684.397 544.781 684.397 544.781C684.397 544.781 690.023 558.229 694.434 568.709C698.845 579.19 696.617 602.577 698.147 608.76C699.678 614.943 703.605 618.714 702.727 624.093C701.849 629.472 702.074 634.31 698.8 634.837C695.526 635.363 690.732 636.459 689.416 634.837C688.099 633.215 690.732 630.802 691.599 626.241C692.465 621.68 693.129 614.68 693.129 614.68L676.116 574.352C676.116 574.352 642.505 553.127 641.639 550.964C640.773 548.802 639.231 504.731 639.456 483.229ZM663.671 544.227L666.731 492.074L664.11 491.796L658.877 541.26L663.671 544.227Z" fill="#263238" stroke="#263238" stroke-miterlimit="10"/>
<path d="M697.112 584.193C697.697 594.189 697.191 604.877 698.147 608.759C699.678 614.942 703.605 618.713 702.727 624.092C701.849 629.47 702.074 634.309 698.8 634.836C695.526 635.362 690.732 636.458 689.416 634.836C688.099 633.214 690.732 630.801 691.599 626.24C692.465 621.679 693.129 614.678 693.129 614.678L682.608 589.725C690.451 592.234 694.997 587.451 697.112 584.193Z" fill="white" stroke="#263238" stroke-miterlimit="10"/>
<path d="M689.416 634.836C688.111 633.228 690.733 630.802 691.599 626.241L698.587 626.781C698.587 626.781 700.027 621.236 701.006 616.01C702.232 618.658 703.256 621.125 702.727 624.092C701.861 629.471 702.075 634.309 698.8 634.836C695.526 635.363 690.733 636.458 689.416 634.836Z" fill="#263238" stroke="#263238" stroke-miterlimit="10"/>
<path d="M664.324 546.943L673.708 570.053" stroke="white" stroke-miterlimit="10"/>
<path d="M635.09 425.974C635.09 425.974 635.09 431.617 637.273 435.11C639.456 438.604 644.474 441.556 644.474 441.556L646.005 455.752C646.005 455.752 649.493 458.927 657.786 459.509C666.079 460.092 674.146 455.212 674.146 455.212L668.689 397.527C668.689 397.527 658.213 392.966 651.676 390.803C645.138 388.641 636.395 391.344 636.395 391.344C636.395 391.344 635.09 413.331 635.09 425.974Z" fill="white" stroke="#263238" stroke-miterlimit="10"/>
<path d="M636.395 391.288C636.395 391.288 645.127 388.599 651.676 390.748C658.225 392.896 668.689 397.527 668.689 397.527L669.578 406.94C663.309 411.999 655.882 414.43 648.401 413.871C643.836 413.565 639.407 411.838 635.529 408.853C635.912 399.551 636.395 391.288 636.395 391.288Z" stroke="#263238" stroke-miterlimit="10"/>
<path d="M638.927 390.928C638.927 390.928 613.565 387.614 608.49 386.769C603.415 385.923 596.754 384.426 596.754 384.426L585.862 390.72C585.404 393.321 585.783 396.039 586.919 398.303C588.821 401.685 630.049 416.935 630.049 416.935C630.049 416.935 631.264 472.776 631.264 476.547C631.264 480.317 631.107 480.844 633.008 482.799C634.91 484.754 645.386 490.41 645.386 490.41C645.386 490.41 640.153 465.456 638.724 454.282C637.295 443.109 636.35 406.219 636.98 399.772C637.61 393.326 638.927 390.928 638.927 390.928Z" fill="#BA68C8" stroke="#263238" stroke-miterlimit="10"/>
<path d="M628.306 396.986L630.05 416.908L623.872 397.957" stroke="#263238" stroke-miterlimit="10"/>
<path d="M637.025 399.718C636.395 406.164 637.34 443.082 638.769 454.228C638.96 455.683 639.208 457.389 639.512 459.246H639.399C635.584 447.268 633.391 434.6 632.907 421.746C632.463 411.223 632.84 400.671 634.032 390.235L638.949 390.873C638.949 390.873 637.655 393.271 637.025 399.718Z" fill="#BA68C8" stroke="#263238" stroke-miterlimit="10"/>
<path d="M656.211 399.176L653.859 387.046C653.859 387.046 655.772 385.77 658.124 384.148C660.475 382.526 665.325 376.177 662.973 365.128C660.622 354.079 654.883 352.457 654.883 352.457C654.883 352.457 646.804 347.577 639.13 350.655C631.456 353.733 630.601 359.153 630.308 360.609C630.016 362.064 631.197 365.322 630.601 365.863C630.004 366.404 624.288 369.301 624.727 370.923C625.354 372.549 626.144 374.072 627.079 375.456C627.079 375.456 627.664 386.325 628.845 387.767C630.027 389.208 636.339 389.583 636.339 389.583L641.628 403.155" fill="white"/>
<path d="M656.211 399.176L653.859 387.046C653.859 387.046 655.772 385.77 658.124 384.148C660.475 382.526 665.325 376.177 662.973 365.128C660.622 354.079 654.883 352.457 654.883 352.457C654.883 352.457 646.804 347.577 639.13 350.655C631.456 353.733 630.601 359.153 630.308 360.609C630.016 362.064 631.197 365.322 630.601 365.863C630.004 366.404 624.288 369.301 624.727 370.923C625.354 372.549 626.144 374.072 627.079 375.456C627.079 375.456 627.664 386.325 628.845 387.767C630.027 389.208 636.339 389.583 636.339 389.583L641.628 403.155" stroke="#263238" stroke-miterlimit="10"/>
<path d="M642.246 352.998C640.199 352.26 638.053 352.034 635.934 352.332C636.965 351.65 638.046 351.088 639.163 350.655C646.803 347.577 654.916 352.457 654.916 352.457C654.916 352.457 660.655 354.093 663.007 365.128C665.358 376.163 660.509 382.513 658.157 384.148C656.762 385.119 655.535 385.951 654.781 386.464C653.723 383.691 652.317 379.768 651.27 376.177C650.494 373.515 647.625 376.912 646.421 374.001C646.151 373.349 646.601 369.55 646.342 368.913C644.947 365.447 643.844 362.328 644.092 360.429C644.452 356.63 647.681 354.994 642.246 352.998Z" fill="#263238" stroke="#263238" stroke-miterlimit="10"/>
<path d="M648.142 377.079C648.142 377.079 651.371 371.298 654.015 374.196C656.66 377.093 654.308 383.428 649.312 382.694" fill="white"/>
<path d="M648.142 377.079C648.142 377.079 651.371 371.298 654.015 374.196C656.66 377.093 654.308 383.428 649.312 382.694" stroke="#263238" stroke-miterlimit="10"/>
<path d="M660.182 357.171C660.182 357.171 664.885 351.196 668.407 350.1C671.929 349.005 676.34 348.714 678.984 355.715C681.628 362.716 680.773 368.414 677.397 371.297C674.022 374.181 671.074 374.555 668.283 372.379C666.042 370.565 664.22 368.067 662.995 365.128C662.229 363.326 660.182 357.171 660.182 357.171Z" fill="#263238" stroke="#263238" stroke-miterlimit="10"/>
<path d="M633.435 365.946C633.435 367.194 633.863 368.22 634.38 368.22C634.898 368.22 635.337 367.194 635.337 365.946C635.337 364.699 634.909 363.687 634.38 363.687C633.852 363.687 633.435 364.699 633.435 365.946Z" fill="#263238"/>
<path d="M636.812 361.691C636.812 361.691 633.875 360.429 632.547 361.691" stroke="#263238" stroke-miterlimit="10"/>
<path d="M631.669 378.354C630.764 378.238 629.851 378.424 629.025 378.895" stroke="#263238" stroke-miterlimit="10"/>
<path d="M636.373 389.582L641.516 388.307L638.725 395.016L636.373 389.582Z" fill="#263238" stroke="#263238" stroke-miterlimit="10"/>
<path d="M654.443 390.761C654.443 390.761 683.406 401.463 684.082 403.39C684.757 405.317 689.708 446.2 689.865 448.681C690.023 451.163 697.652 464.319 696.526 468.713C695.401 473.108 687.176 485.183 682.495 488.746C679.996 490.702 677.39 492.443 674.697 493.958C674.697 493.958 667.124 464.846 662.669 446.477C658.213 428.108 654.443 390.761 654.443 390.761Z" fill="#BA68C8" stroke="#263238" stroke-miterlimit="10"/>
<path d="M654.443 390.761C654.443 390.761 658.944 392.424 664.435 394.559C664.975 406.121 666.438 438.921 666.258 447.031C666.157 451.19 666.112 456.001 666.078 460.16C664.874 455.363 663.704 450.65 662.702 446.477C658.269 428.094 654.443 390.761 654.443 390.761Z" fill="#BA68C8" stroke="#263238" stroke-miterlimit="10"/>
<path d="M597.508 396.598C601.322 389.957 602.098 376.053 605.125 369.828C608.152 363.603 611.877 362.342 611.877 362.342L613.474 361.801C614.564 362.103 615.694 362.103 616.783 361.801C618.234 361.274 621.981 359.666 621.981 359.666C621.981 359.666 624.715 360.207 625.728 359.32C626.741 358.432 623.849 358.252 625.301 357.712C626.752 357.171 632.513 356.824 633.661 355.41C634.809 353.996 628.755 353.622 628.755 353.622C626.703 352.829 624.558 352.468 622.409 352.554C619.674 352.915 611.877 354.343 610.436 354.509C608.996 354.676 604.529 359.666 604.529 359.666C604.529 359.666 592.838 374.597 589.957 380.101C587.077 385.604 585.918 389.347 585.772 390.775C585.687 391.538 585.638 392.307 585.625 393.077" fill="white"/>
<path d="M597.508 396.598C601.322 389.957 602.098 376.053 605.125 369.828C608.152 363.603 611.877 362.342 611.877 362.342L613.474 361.801C614.564 362.103 615.694 362.103 616.783 361.801C618.234 361.274 621.981 359.666 621.981 359.666C621.981 359.666 624.715 360.207 625.728 359.32C626.741 358.432 623.849 358.252 625.301 357.712C626.752 357.171 632.513 356.824 633.661 355.41C634.809 353.996 628.755 353.622 628.755 353.622C626.703 352.829 624.558 352.468 622.409 352.554C619.674 352.915 611.877 354.343 610.436 354.509C608.996 354.676 604.529 359.666 604.529 359.666C604.529 359.666 592.838 374.597 589.957 380.101C587.077 385.604 585.918 389.347 585.772 390.775C585.687 391.538 585.638 392.307 585.625 393.077" stroke="#263238" stroke-miterlimit="10"/>
<path d="M596.494 399.661C598.745 398.635 601.727 389.472 603.111 385.063C604.495 380.655 609.716 368.427 609.716 368.427L602.278 360.955L588.235 382.332C586.55 384.404 585.499 387.13 585.259 390.049C585.019 392.967 585.605 395.898 586.919 398.344" fill="#BA68C8"/>
<path d="M596.494 399.661C598.745 398.635 601.727 389.472 603.111 385.063C604.495 380.655 609.716 368.427 609.716 368.427L602.278 360.955L588.235 382.332C586.55 384.404 585.499 387.13 585.259 390.049C585.019 392.967 585.605 395.898 586.919 398.344" stroke="#263238" stroke-miterlimit="10"/>
<path d="M626.392 353.455C626.392 353.455 627.978 355.049 624.141 355.576C622.519 355.893 620.876 356.014 619.235 355.937C617.74 358.056 615.712 359.496 613.474 360.026" stroke="#263238" stroke-miterlimit="10"/>
<path d="M712.975 497.621L715.01 507.469L712.731 508.183L710.696 498.336L712.975 497.621Z" fill="#263238" stroke="#263238" stroke-miterlimit="10"/>
<path d="M724.669 491.181L727.045 500.099L724.81 501.002L722.435 492.085L724.669 491.181Z" fill="#263238" stroke="#263238" stroke-miterlimit="10"/>
<path d="M711.435 498.839C711.66 498.837 711.881 498.78 712.088 498.672L724.015 492.157C724.403 491.945 724.707 491.553 724.86 491.065C725.013 490.578 725.003 490.035 724.831 489.557C724.659 489.079 724.341 488.705 723.945 488.516C723.549 488.328 723.109 488.341 722.721 488.552L710.794 495.082C710.454 495.258 710.174 495.574 710.003 495.976C709.831 496.379 709.779 496.842 709.855 497.287C709.931 497.731 710.13 498.129 710.419 498.413C710.707 498.696 711.067 498.847 711.435 498.839Z" fill="#263238" stroke="#263238" stroke-miterlimit="10"/>
<path d="M737.226 489.883L701.669 511.884L706.361 563.621L712.021 564.827L750.684 538.848L737.226 489.883Z" fill="#B2B2B2" stroke="#263238" stroke-miterlimit="10"/>
<path d="M701.669 511.883L712.021 564.826L706.362 563.62L701.669 511.883Z" fill="#B2B2B2" stroke="#263238" stroke-miterlimit="10"/>
<path d="M737.227 489.883C737.227 489.883 731.702 527.022 724.737 526.579C719.347 526.232 701.67 511.884 701.67 511.884" stroke="#263238" stroke-miterlimit="10"/>
<path d="M727.864 521.394L729.788 529.684L726.908 531.902L724.623 523.321L727.864 521.394Z" fill="white" stroke="#263238" stroke-miterlimit="10"/>
<path d="M710.806 485.987L713.157 501.833C713.157 501.833 714.665 503.288 715.734 502.886C716.803 502.484 717.231 500.252 717.231 500.252C717.231 500.252 723.127 498.395 723.554 494.971C723.982 491.546 718.491 481.606 718.491 481.606L710.806 485.987Z" fill="white" stroke="#263238" stroke-miterlimit="10"/>
<path d="M684.082 403.391L708.837 440.447L719.031 481.607L710.12 486.459L696.088 451.149L675.587 429.19C675 427.754 674.659 426.186 674.583 424.581C674.508 422.976 674.7 421.37 675.148 419.86" fill="#BA68C8"/>
<path d="M684.082 403.391L708.837 440.447L719.031 481.607L710.12 486.459L696.088 451.149L675.587 429.19C675 427.754 674.659 426.186 674.583 424.581C674.508 422.976 674.7 421.37 675.148 419.86" stroke="#263238" stroke-miterlimit="10"/>
<path d="M153.474 149.167H162.6V218.705H153.474V149.167Z" fill="#BA68C8" stroke="#263238" stroke-miterlimit="10"/>
<path d="M176.89 148.224C187.962 148.224 196.66 143.982 202.77 135.636C213.775 120.525 211.896 97.5538 211.772 96.5834C211.68 95.5614 211.284 94.6176 210.661 93.9341C210.037 93.2505 209.231 92.8757 208.396 92.8819H178.533V101.2H201.69C202.153 101.199 202.611 101.315 203.036 101.541C203.461 101.767 203.843 102.098 204.16 102.514C204.477 102.93 204.72 103.422 204.876 103.959C205.032 104.496 205.096 105.067 205.065 105.636C204.649 112.651 203.051 122.771 197.695 130.118C192.947 136.606 185.948 139.906 176.89 139.906V148.224Z" fill="#BA68C8" stroke="#263238" stroke-miterlimit="10"/>
<path d="M139.173 148.224C128.101 148.224 119.403 143.982 113.293 135.636C102.288 120.525 104.167 97.5538 104.291 96.5834C104.383 95.5614 104.779 94.6176 105.402 93.9341C106.025 93.2505 106.832 92.8757 107.667 92.8819H137.519V101.2H114.373C113.91 101.199 113.452 101.315 113.027 101.541C112.602 101.767 112.219 102.098 111.903 102.514C111.586 102.93 111.342 103.422 111.187 103.959C111.031 104.496 110.967 105.067 110.997 105.636C111.402 112.651 113 122.771 118.368 130.118C123.105 136.606 130.104 139.906 139.162 139.906L139.173 148.224Z" fill="#BA68C8" stroke="#263238" stroke-miterlimit="10"/>
<path d="M183.529 84.7725H132.894V132.448C132.894 140.68 135.549 148.575 140.273 154.396C144.998 160.217 151.406 163.488 158.088 163.488H158.324C165.006 163.488 171.414 160.217 176.139 154.396C180.864 148.575 183.518 140.68 183.518 132.448V84.7725H183.529Z" fill="#BA68C8" stroke="#263238" stroke-miterlimit="10"/>
<path d="M137.811 84.7725V130.937C137.811 146.949 148.309 160.049 161.542 160.937C161.062 160.937 160.578 160.937 160.09 160.937C146.172 160.937 134.897 147.489 134.897 130.895V84.7725H137.811Z" fill="#263238"/>
<path d="M178.489 84.7725V130.673C178.489 146.588 169.183 159.592 157.458 160.493C157.886 160.493 158.313 160.493 158.752 160.493C171.073 160.493 181.065 147.115 181.065 130.618V84.7725H178.489Z" fill="white"/>
<path d="M132.917 84.7725H183.529V98.4277H132.917V84.7725Z" fill="#BA68C8" stroke="#263238" stroke-miterlimit="10"/>
<path d="M152.979 178.57H162.735C164.059 178.57 165.132 179.892 165.132 181.523V194.069C165.132 195.7 164.059 197.022 162.735 197.022H152.979C151.656 197.022 150.583 195.7 150.583 194.069V181.523C150.583 179.892 151.656 178.57 152.979 178.57Z" fill="#BA68C8" stroke="#263238" stroke-miterlimit="10"/>
<path d="M128.888 219.522C129.517 217.41 130.657 215.585 132.154 214.296C133.651 213.007 135.433 212.315 137.26 212.313H178.465C180.292 212.315 182.074 213.007 183.571 214.296C185.068 215.585 186.208 217.41 186.837 219.522H128.888Z" fill="#BA68C8" stroke="#263238" stroke-miterlimit="10"/>
<path d="M174.55 91.565C174.548 91.0401 174.673 90.5263 174.908 90.0887C175.143 89.6512 175.479 89.3097 175.872 89.1075C176.265 88.9054 176.698 88.8518 177.116 88.9535C177.534 89.0553 177.918 89.3077 178.219 89.6789C178.52 90.05 178.725 90.5231 178.808 91.038C178.89 91.5529 178.847 92.0865 178.683 92.5709C178.519 93.0553 178.242 93.4687 177.886 93.7586C177.531 94.0484 177.114 94.2018 176.688 94.199C176.121 94.199 175.577 93.9215 175.177 93.4275C174.776 92.9336 174.55 92.2636 174.55 91.565Z" fill="#BA68C8" stroke="#263238" stroke-miterlimit="10"/>
<path d="M165.131 91.565C165.129 91.0408 165.253 90.5275 165.488 90.0902C165.723 89.653 166.058 89.3114 166.45 89.1089C166.843 88.9063 167.275 88.8519 167.693 88.9525C168.111 89.0531 168.495 89.3042 168.796 89.674C169.098 90.0437 169.304 90.5155 169.388 91.0295C169.471 91.5435 169.429 92.0766 169.267 92.5613C169.105 93.0459 168.829 93.4603 168.476 93.7518C168.122 94.0434 167.706 94.199 167.281 94.1991C166.713 94.1991 166.168 93.922 165.765 93.4284C165.362 92.9348 165.134 92.2649 165.131 91.565Z" fill="#BA68C8" stroke="#263238" stroke-miterlimit="10"/>
<path d="M155.725 91.5656C155.725 91.0447 155.851 90.5354 156.085 90.1023C156.32 89.6691 156.654 89.3315 157.045 89.1321C157.436 88.9328 157.865 88.8806 158.28 88.9823C158.695 89.0839 159.076 89.3348 159.375 89.7031C159.674 90.0715 159.877 90.5408 159.96 91.0518C160.042 91.5627 160 92.0923 159.838 92.5736C159.676 93.0549 159.402 93.4663 159.051 93.7557C158.699 94.0452 158.286 94.1996 157.863 94.1996C157.296 94.1996 156.752 93.9221 156.351 93.4282C155.95 92.9342 155.725 92.2642 155.725 91.5656Z" fill="#BA68C8" stroke="#263238" stroke-miterlimit="10"/>
<path d="M146.296 91.5656C146.296 91.0447 146.422 90.5354 146.657 90.1023C146.892 89.6691 147.226 89.3315 147.616 89.1321C148.007 88.9328 148.437 88.8806 148.851 88.9823C149.266 89.0839 149.647 89.3348 149.946 89.7031C150.245 90.0715 150.449 90.5408 150.531 91.0518C150.614 91.5627 150.571 92.0923 150.41 92.5736C150.248 93.0549 149.974 93.4663 149.622 93.7557C149.271 94.0452 148.857 94.1996 148.434 94.1996C147.867 94.1996 147.324 93.9221 146.923 93.4282C146.522 92.9342 146.296 92.2642 146.296 91.5656Z" fill="#BA68C8" stroke="#263238" stroke-miterlimit="10"/>
<path d="M136.888 91.565C136.886 91.0401 137.01 90.5263 137.246 90.0887C137.481 89.6512 137.817 89.3097 138.21 89.1075C138.603 88.9054 139.036 88.8518 139.454 88.9535C139.872 89.0553 140.256 89.3077 140.557 89.6789C140.858 90.05 141.063 90.5231 141.146 91.038C141.228 91.5529 141.185 92.0865 141.021 92.5709C140.857 93.0553 140.579 93.4687 140.224 93.7586C139.869 94.0484 139.452 94.2018 139.026 94.199C138.459 94.199 137.915 93.9215 137.514 93.4275C137.113 92.9336 136.888 92.2636 136.888 91.565Z" fill="#BA68C8" stroke="#263238" stroke-miterlimit="10"/>
<path d="M142.484 130.697C140.246 119.951 145.503 109.004 154.225 106.247C162.947 103.49 171.832 109.966 174.07 120.712C176.308 131.459 171.051 142.405 162.329 145.162C153.607 147.919 144.722 141.443 142.484 130.697Z" fill="#263238" stroke="#263238" stroke-miterlimit="10"/>
<path d="M155.073 136.385H158.448V120.983C159.675 122.391 161.139 123.446 162.735 124.075V120.36C161.669 119.916 160.675 119.245 159.799 118.377C158.846 117.516 158.119 116.33 157.706 114.967H155.016L155.073 136.385Z" fill="white"/>
<path d="M157.57 47.7715V71.935" stroke="#263238" stroke-miterlimit="10"/>
<path d="M241.736 121.26H222.124" stroke="#263238" stroke-miterlimit="10"/>
<path d="M198.585 169.795L195.581 166.08" stroke="#263238" stroke-miterlimit="10"/>
<path d="M209.454 183.173L201.51 173.386" stroke="#263238" stroke-miterlimit="10"/>
<path d="M105.81 176.977L114.654 166.08" stroke="#263238" stroke-miterlimit="10"/>
<path d="M100.791 183.174L103.323 180.055" stroke="#263238" stroke-miterlimit="10"/>
<path d="M198.157 78.3115L195.58 81.4862" stroke="#263238" stroke-miterlimit="10"/>
<path d="M209.454 64.3936L200.824 75.0266" stroke="#263238" stroke-miterlimit="10"/>
<path d="M100.792 64.3936L114.654 81.4868" stroke="#263238" stroke-miterlimit="10"/>
<path d="M79.6709 121.26H75.8565" stroke="#263238" stroke-miterlimit="10"/>
<path d="M95.4697 121.26H83.4861" stroke="#263238" stroke-miterlimit="10"/>
</g>
<defs>
<filter id="filter0_d_3_8021" x="0" y="0.5" width="845" height="643.695" filterUnits="userSpaceOnUse" color-interpolation-filters="sRGB">
<feFlood flood-opacity="0" result="BackgroundImageFix"/>
<feColorMatrix in="SourceAlpha" type="matrix" values="0 0 0 0 0 0 0 0 0 0 0 0 0 0 0 0 0 0 127 0" result="hardAlpha"/>
<feOffset dy="4"/>
<feGaussianBlur stdDeviation="2"/>
<feComposite in2="hardAlpha" operator="out"/>
<feColorMatrix type="matrix" values="0 0 0 0 0 0 0 0 0 0 0 0 0 0 0 0 0 0 0.25 0"/>
<feBlend mode="normal" in2="BackgroundImageFix" result="effect1_dropShadow_3_8021"/>
<feBlend mode="normal" in="SourceGraphic" in2="effect1_dropShadow_3_8021" result="shape"/>
</filter>
</defs>
</svg>
