<svg width="737" height="615" viewBox="0 0 737 615" fill="none" xmlns="http://www.w3.org/2000/svg">
<path d="M528.429 351.017H499.646V414.292H528.429V351.017Z" fill="#FAFAFA"/>
<path d="M521.238 356.208H506.857V393.817H521.238V356.208Z" fill="#8C8C8C"/>
<path d="M514.047 408.784C516.408 408.784 518.321 407.28 518.321 405.424C518.321 403.569 516.408 402.064 514.047 402.064C511.687 402.064 509.773 403.569 509.773 405.424C509.773 407.28 511.687 408.784 514.047 408.784Z" fill="#8C8C8C"/>
<path d="M569.526 351.017H540.744V414.292H569.526V351.017Z" fill="#8C8C8C"/>
<path d="M562.315 356.208H547.934V393.817H562.315V356.208Z" fill="#FAFAFA"/>
<path d="M555.145 408.784C557.505 408.784 559.419 407.28 559.419 405.424C559.419 403.569 557.505 402.064 555.145 402.064C552.784 402.064 550.871 403.569 550.871 405.424C550.871 407.28 552.784 408.784 555.145 408.784Z" fill="#FAFAFA"/>
<path d="M610.622 351.017H581.84V414.292H610.622V351.017Z" fill="#8C8C8C"/>
<path d="M603.412 356.208H589.031V393.817H603.412V356.208Z" fill="#FAFAFA"/>
<path d="M600.515 405.376C600.515 404.708 600.263 404.055 599.79 403.499C599.317 402.944 598.646 402.511 597.86 402.256C597.074 402.001 596.21 401.935 595.376 402.067C594.543 402.199 593.777 402.522 593.178 402.995C592.578 403.469 592.171 404.072 592.007 404.728C591.844 405.384 591.932 406.063 592.26 406.679C592.588 407.296 593.142 407.822 593.85 408.191C594.559 408.56 595.391 408.755 596.242 408.752C597.377 408.748 598.464 408.39 599.265 407.758C600.066 407.125 600.515 406.269 600.515 405.376Z" fill="#FAFAFA"/>
<path d="M651.72 351.017H622.938V414.292H651.72V351.017Z" fill="#FAFAFA"/>
<path d="M644.509 356.208H630.128V393.817H644.509V356.208Z" fill="#8C8C8C"/>
<path d="M641.612 405.377C641.612 404.709 641.361 404.056 640.889 403.501C640.417 402.946 639.746 402.513 638.962 402.258C638.177 402.002 637.314 401.936 636.481 402.066C635.648 402.196 634.883 402.518 634.282 402.99C633.682 403.462 633.273 404.063 633.107 404.718C632.941 405.373 633.026 406.051 633.351 406.668C633.676 407.285 634.227 407.812 634.933 408.183C635.639 408.554 636.469 408.752 637.318 408.752C638.457 408.752 639.549 408.396 640.355 407.763C641.16 407.13 641.612 406.272 641.612 405.377Z" fill="#8C8C8C"/>
<path d="M698.508 189.771V185.186H687.611V168.133H679.063V185.186H487.736V168.133H479.189V185.186H464.788V189.771H479.189V261.295H464.788V265.88H479.189V337.42H464.788V342.005H479.189V413.529H464.788V418.114H479.189V496.421H487.736V418.114H679.063V496.421H687.611V418.114H698.508V413.529H687.611V342.005H698.508V337.42H687.611V265.88H698.508V261.295H687.611V189.771H698.508ZM679.063 413.529H487.736V342.005H679.063V413.529ZM679.063 337.42H487.736V265.88H679.063V337.42ZM679.063 261.295H487.736V189.771H679.063V261.295Z" fill="#FAFAFA"/>
<path d="M626.502 198.019H597.72V261.294H626.502V198.019Z" fill="#8C8C8C"/>
<path d="M619.292 203.209H604.911V240.818H619.292V203.209Z" fill="#8C8C8C"/>
<path d="M616.395 252.425C616.395 251.757 616.143 251.104 615.67 250.548C615.197 249.993 614.525 249.56 613.74 249.305C612.954 249.05 612.089 248.984 611.256 249.116C610.422 249.247 609.657 249.57 609.058 250.044C608.458 250.518 608.051 251.121 607.887 251.777C607.724 252.432 607.812 253.112 608.14 253.728C608.468 254.345 609.022 254.871 609.73 255.24C610.439 255.609 611.271 255.804 612.121 255.801C613.257 255.797 614.344 255.439 615.145 254.807C615.946 254.174 616.395 253.318 616.395 252.425Z" fill="#8C8C8C"/>
<path d="M592.738 198.019H563.956V261.294H592.738V198.019Z" fill="#8C8C8C"/>
<path d="M585.547 203.209H571.166V240.818H585.547V203.209Z" fill="#8C8C8C"/>
<path d="M578.357 255.785C580.717 255.785 582.631 254.281 582.631 252.425C582.631 250.57 580.717 249.065 578.357 249.065C575.996 249.065 574.083 250.57 574.083 252.425C574.083 254.281 575.996 255.785 578.357 255.785Z" fill="#8C8C8C"/>
<path d="M558.993 198.019H530.211V261.294H558.993V198.019Z" fill="#FAFAFA"/>
<path d="M551.782 203.209H537.401V240.818H551.782V203.209Z" fill="#8C8C8C"/>
<path d="M544.592 255.785C546.952 255.785 548.865 254.281 548.865 252.425C548.865 250.57 546.952 249.065 544.592 249.065C542.231 249.065 540.318 250.57 540.318 252.425C540.318 254.281 542.231 255.785 544.592 255.785Z" fill="#8C8C8C"/>
<path d="M666.162 198.019H637.379V261.294H666.162V198.019Z" fill="#8C8C8C"/>
<path d="M658.971 203.209H644.59V240.818H658.971V203.209Z" fill="#8C8C8C"/>
<path d="M651.781 255.785C654.141 255.785 656.054 254.281 656.054 252.425C656.054 250.57 654.141 249.065 651.781 249.065C649.42 249.065 647.507 250.57 647.507 252.425C647.507 254.281 649.42 255.785 651.781 255.785Z" fill="#8C8C8C"/>
<path d="M523.041 198.019H494.259V261.294H523.041V198.019Z" fill="#FAFAFA"/>
<path d="M515.83 203.209H501.449V240.818H515.83V203.209Z" fill="#8C8C8C"/>
<path d="M508.639 255.785C510.999 255.785 512.913 254.281 512.913 252.425C512.913 250.57 510.999 249.065 508.639 249.065C506.279 249.065 504.365 250.57 504.365 252.425C504.365 254.281 506.279 255.785 508.639 255.785Z" fill="#8C8C8C"/>
<path d="M639.04 165.537H552.532C555.426 168.191 556.963 171.596 556.846 175.091C556.956 178.584 555.419 181.987 552.532 184.644H639.04C642.263 184.644 645.354 183.637 647.634 181.846C649.913 180.054 651.193 177.624 651.193 175.091C651.193 172.557 649.913 170.127 647.634 168.335C645.354 166.544 642.263 165.537 639.04 165.537Z" fill="#D4D4D4" stroke="white" stroke-miterlimit="10"/>
<path d="M642.443 165.919V184.055C644.936 183.468 647.123 182.269 648.684 180.632C650.244 178.995 651.095 177.008 651.112 174.963C651.082 172.926 650.225 170.949 648.666 169.322C647.106 167.695 644.926 166.503 642.443 165.919Z" fill="#9C9C9C" stroke="white" stroke-miterlimit="10"/>
<path d="M639.04 145.363H552.532C555.419 148.021 556.956 151.423 556.846 154.917C556.956 158.41 555.419 161.813 552.532 164.47H639.04C642.263 164.47 645.354 163.464 647.634 161.672C649.913 159.88 651.193 157.45 651.193 154.917C651.193 152.383 649.913 149.953 647.634 148.161C645.354 146.37 642.263 145.363 639.04 145.363Z" fill="#D4D4D4" stroke="white" stroke-miterlimit="10"/>
<path d="M642.443 145.745V163.96C644.939 163.373 647.129 162.171 648.69 160.531C650.251 158.891 651.1 156.901 651.112 154.853C651.1 152.805 650.251 150.814 648.69 149.174C647.129 147.534 644.939 146.332 642.443 145.745Z" fill="#9C9C9C" stroke="white" stroke-miterlimit="10"/>
<path d="M551.397 119.474H522.615V182.749H551.397V119.474Z" fill="#FAFAFA"/>
<path d="M544.187 124.664H529.806V162.273H544.187V124.664Z" fill="#FAFAFA"/>
<path d="M541.27 173.88C541.27 173.216 541.019 172.566 540.549 172.014C540.08 171.461 539.412 171.031 538.631 170.776C537.851 170.522 536.991 170.455 536.162 170.585C535.333 170.715 534.572 171.035 533.974 171.505C533.376 171.974 532.969 172.573 532.804 173.225C532.639 173.876 532.724 174.552 533.047 175.166C533.371 175.78 533.919 176.304 534.622 176.674C535.324 177.043 536.151 177.24 536.996 177.24C537.558 177.242 538.115 177.156 538.635 176.988C539.154 176.82 539.627 176.573 540.024 176.26C540.421 175.948 540.736 175.577 540.95 175.168C541.164 174.76 541.272 174.322 541.27 173.88Z" fill="#FAFAFA"/>
<path d="M666.162 273.522H637.379V336.798H666.162V273.522Z" fill="#FAFAFA"/>
<path d="M658.971 278.729H644.59V316.338H658.971V278.729Z" fill="#8C8C8C"/>
<path d="M656.054 327.946C656.054 327.281 655.804 326.632 655.334 326.079C654.865 325.527 654.197 325.096 653.416 324.842C652.635 324.587 651.776 324.521 650.947 324.65C650.118 324.78 649.356 325.1 648.759 325.57C648.161 326.04 647.754 326.638 647.589 327.29C647.424 327.942 647.509 328.617 647.832 329.231C648.156 329.845 648.703 330.37 649.406 330.739C650.109 331.108 650.935 331.305 651.781 331.305C652.912 331.301 653.996 330.946 654.797 330.317C655.597 329.687 656.049 328.835 656.054 327.946Z" fill="#8C8C8C"/>
<path d="M632.801 273.522H604.019V336.798H632.801V273.522Z" fill="#FAFAFA"/>
<path d="M625.591 278.729H611.21V316.338H625.591V278.729Z" fill="#8C8C8C"/>
<path d="M622.674 327.946C622.674 327.281 622.424 326.632 621.954 326.079C621.485 325.527 620.817 325.096 620.036 324.842C619.255 324.587 618.396 324.521 617.567 324.65C616.738 324.78 615.976 325.1 615.379 325.57C614.781 326.04 614.374 326.638 614.209 327.29C614.044 327.942 614.129 328.617 614.452 329.231C614.776 329.845 615.324 330.37 616.026 330.739C616.729 331.108 617.555 331.305 618.401 331.305C618.962 331.305 619.518 331.218 620.036 331.049C620.555 330.881 621.026 330.633 621.423 330.321C621.82 330.009 622.134 329.639 622.349 329.231C622.564 328.824 622.674 328.387 622.674 327.946Z" fill="#8C8C8C"/>
<path d="M563.935 273.522H535.153V336.798H563.935V273.522Z" fill="#FAFAFA"/>
<path d="M556.725 278.729H542.344V316.338H556.725V278.729Z" fill="#8C8C8C"/>
<path d="M553.808 327.946C553.808 327.281 553.557 326.632 553.088 326.079C552.618 325.527 551.95 325.096 551.17 324.842C550.389 324.587 549.529 324.521 548.7 324.65C547.871 324.78 547.11 325.1 546.512 325.57C545.914 326.04 545.507 326.638 545.342 327.29C545.177 327.942 545.262 328.617 545.586 329.231C545.909 329.845 546.457 330.37 547.16 330.739C547.862 331.108 548.689 331.305 549.534 331.305C550.095 331.305 550.651 331.218 551.17 331.049C551.688 330.881 552.159 330.633 552.556 330.321C552.953 330.009 553.268 329.639 553.482 329.231C553.697 328.824 553.808 328.387 553.808 327.946Z" fill="#8C8C8C"/>
<path d="M599.421 273.522H570.639V336.798H599.421V273.522Z" fill="#FAFAFA"/>
<path d="M592.211 278.729H577.83V316.338H592.211V278.729Z" fill="#8C8C8C"/>
<path d="M589.294 327.946C589.294 327.281 589.043 326.632 588.574 326.079C588.104 325.527 587.437 325.096 586.656 324.842C585.875 324.587 585.016 324.521 584.187 324.65C583.358 324.78 582.596 325.1 581.998 325.57C581.401 326.04 580.994 326.638 580.829 327.29C580.664 327.942 580.748 328.617 581.072 329.231C581.395 329.845 581.943 330.37 582.646 330.739C583.349 331.108 584.175 331.305 585.02 331.305C585.582 331.305 586.137 331.218 586.656 331.049C587.174 330.881 587.646 330.633 588.042 330.321C588.439 330.009 588.754 329.639 588.969 329.231C589.184 328.824 589.294 328.387 589.294 327.946Z" fill="#8C8C8C"/>
<path d="M296.875 351.017H268.093V414.292H296.875V351.017Z" fill="#FAFAFA"/>
<path d="M289.665 356.208H275.284V393.817H289.665V356.208Z" fill="#FAFAFA"/>
<path d="M282.474 408.784C284.834 408.784 286.748 407.28 286.748 405.424C286.748 403.569 284.834 402.064 282.474 402.064C280.114 402.064 278.2 403.569 278.2 405.424C278.2 407.28 280.114 408.784 282.474 408.784Z" fill="#FAFAFA"/>
<path d="M337.952 351.017H309.17V414.292H337.952V351.017Z" fill="#FAFAFA"/>
<path d="M330.761 356.208H316.38V393.817H330.761V356.208Z" fill="#FAFAFA"/>
<path d="M323.571 408.784C325.931 408.784 327.845 407.28 327.845 405.424C327.845 403.569 325.931 402.064 323.571 402.064C321.211 402.064 319.297 403.569 319.297 405.424C319.297 407.28 321.211 408.784 323.571 408.784Z" fill="#FAFAFA"/>
<path d="M379.049 351.017H350.267V414.292H379.049V351.017Z" fill="#FAFAFA"/>
<path d="M371.858 356.208H357.478V393.817H371.858V356.208Z" fill="#FAFAFA"/>
<path d="M364.668 408.784C367.029 408.784 368.942 407.28 368.942 405.424C368.942 403.569 367.029 402.064 364.668 402.064C362.308 402.064 360.395 403.569 360.395 405.424C360.395 407.28 362.308 408.784 364.668 408.784Z" fill="#FAFAFA"/>
<path d="M420.146 351.017H391.364V414.292H420.146V351.017Z" fill="#FAFAFA"/>
<path d="M412.935 356.208H398.554V393.817H412.935V356.208Z" fill="#FAFAFA"/>
<path d="M410.039 405.376C410.039 404.708 409.786 404.055 409.314 403.499C408.841 402.944 408.169 402.511 407.383 402.256C406.597 402.001 405.733 401.935 404.9 402.067C404.066 402.199 403.301 402.522 402.701 402.995C402.102 403.469 401.694 404.072 401.531 404.728C401.367 405.384 401.455 406.063 401.783 406.679C402.112 407.296 402.665 407.822 403.374 408.191C404.083 408.56 404.915 408.755 405.765 408.752C406.9 408.748 407.987 408.39 408.788 407.758C409.589 407.125 410.039 406.269 410.039 405.376Z" fill="#FAFAFA"/>
<path d="M256.163 168.133H247.616V496.421H256.163V168.133Z" fill="#FAFAFA"/>
<path d="M456.038 168.133H447.49V496.421H456.038V168.133Z" fill="#FAFAFA"/>
<path d="M466.935 185.186H233.214V189.771H466.935V185.186Z" fill="#FAFAFA"/>
<path d="M466.935 261.294H233.214V265.88H466.935V261.294Z" fill="#FAFAFA"/>
<path d="M466.935 337.419H233.214V342.005H466.935V337.419Z" fill="#FAFAFA"/>
<path d="M466.935 413.528H233.214V418.114H466.935V413.528Z" fill="#FAFAFA"/>
<path d="M394.929 198.019H366.147V261.294H394.929V198.019Z" fill="#FAFAFA"/>
<path d="M387.718 203.209H373.337V240.818H387.718V203.209Z" fill="#FAFAFA"/>
<path d="M384.821 252.425C384.821 251.757 384.569 251.104 384.096 250.548C383.624 249.993 382.952 249.56 382.166 249.305C381.38 249.05 380.516 248.984 379.682 249.116C378.849 249.247 378.084 249.57 377.484 250.044C376.884 250.518 376.477 251.121 376.313 251.777C376.15 252.432 376.238 253.112 376.566 253.728C376.894 254.345 377.448 254.871 378.157 255.24C378.865 255.609 379.698 255.804 380.548 255.801C381.683 255.797 382.77 255.439 383.571 254.807C384.372 254.174 384.821 253.318 384.821 252.425Z" fill="#FAFAFA"/>
<path d="M361.184 198.019H332.402V261.294H361.184V198.019Z" fill="#FAFAFA"/>
<path d="M353.974 203.209H339.593V240.818H353.974V203.209Z" fill="#8C8C8C"/>
<path d="M346.783 255.785C349.143 255.785 351.057 254.281 351.057 252.425C351.057 250.57 349.143 249.065 346.783 249.065C344.423 249.065 342.509 250.57 342.509 252.425C342.509 254.281 344.423 255.785 346.783 255.785Z" fill="#8C8C8C"/>
<path d="M327.419 198.019H298.637V261.294H327.419V198.019Z" fill="#FAFAFA"/>
<path d="M320.209 203.209H305.828V240.818H320.209V203.209Z" fill="#8C8C8C"/>
<path d="M313.018 255.785C315.379 255.785 317.292 254.281 317.292 252.425C317.292 250.57 315.379 249.065 313.018 249.065C310.658 249.065 308.745 250.57 308.745 252.425C308.745 254.281 310.658 255.785 313.018 255.785Z" fill="#8C8C8C"/>
<path d="M434.608 198.019H405.826V261.294H434.608V198.019Z" fill="#FAFAFA"/>
<path d="M427.397 203.209H413.016V240.818H427.397V203.209Z" fill="#8C8C8C"/>
<path d="M420.207 255.785C422.567 255.785 424.481 254.281 424.481 252.425C424.481 250.57 422.567 249.065 420.207 249.065C417.847 249.065 415.933 250.57 415.933 252.425C415.933 254.281 417.847 255.785 420.207 255.785Z" fill="#FAFAFA"/>
<path d="M291.467 198.019H262.685V261.294H291.467V198.019Z" fill="#FAFAFA"/>
<path d="M284.256 203.209H269.875V240.818H284.256V203.209Z" fill="#8C8C8C"/>
<path d="M277.066 255.785C279.426 255.785 281.34 254.281 281.34 252.425C281.34 250.57 279.426 249.065 277.066 249.065C274.705 249.065 272.792 250.57 272.792 252.425C272.792 254.281 274.705 255.785 277.066 255.785Z" fill="#8C8C8C"/>
<path d="M291.467 121.592H262.685V184.867H291.467V121.592Z" fill="#FAFAFA"/>
<path d="M284.256 126.782H269.875V164.391H284.256V126.782Z" fill="#8C8C8C"/>
<path d="M277.066 179.358C279.426 179.358 281.34 177.854 281.34 175.998C281.34 174.143 279.426 172.639 277.066 172.639C274.705 172.639 272.792 174.143 272.792 175.998C272.792 177.854 274.705 179.358 277.066 179.358Z" fill="#8C8C8C"/>
<path d="M323.085 121.592H294.303V184.867H323.085V121.592Z" fill="#FAFAFA"/>
<path d="M315.895 126.782H301.514V164.391H315.895V126.782Z" fill="#8C8C8C"/>
<path d="M308.704 179.358C311.064 179.358 312.978 177.854 312.978 175.998C312.978 174.143 311.064 172.639 308.704 172.639C306.344 172.639 304.43 174.143 304.43 175.998C304.43 177.854 306.344 179.358 308.704 179.358Z" fill="#8C8C8C"/>
<path d="M404.752 186.125V163.499H324.26V186.125H404.752Z" fill="#FAFAFA"/>
<path d="M398.149 180.456V169.151H350.328V180.456H398.149Z" fill="#8C8C8C"/>
<path d="M335.643 178.164C336.488 178.164 337.314 177.967 338.017 177.597C338.72 177.228 339.268 176.704 339.591 176.09C339.915 175.476 339.999 174.8 339.835 174.149C339.67 173.497 339.263 172.898 338.665 172.428C338.067 171.958 337.306 171.639 336.477 171.509C335.648 171.379 334.788 171.446 334.007 171.7C333.226 171.954 332.559 172.385 332.089 172.937C331.62 173.49 331.369 174.139 331.369 174.804C331.374 175.694 331.826 176.546 332.627 177.175C333.427 177.804 334.511 178.159 335.643 178.164Z" fill="#8C8C8C"/>
<path d="M434.608 273.522H405.826V336.798H434.608V273.522Z" fill="#FAFAFA"/>
<path d="M427.397 278.729H413.016V316.338H427.397V278.729Z" fill="#FAFAFA"/>
<path d="M424.481 327.946C424.481 327.281 424.23 326.632 423.76 326.079C423.291 325.527 422.623 325.096 421.842 324.842C421.061 324.587 420.202 324.521 419.373 324.65C418.544 324.78 417.783 325.1 417.185 325.57C416.587 326.04 416.18 326.638 416.015 327.29C415.85 327.942 415.935 328.617 416.258 329.231C416.582 329.845 417.13 330.37 417.833 330.739C418.535 331.108 419.362 331.305 420.207 331.305C420.768 331.305 421.324 331.218 421.842 331.049C422.361 330.881 422.832 330.633 423.229 330.321C423.626 330.009 423.941 329.639 424.155 329.231C424.37 328.824 424.481 328.387 424.481 327.946Z" fill="#FAFAFA"/>
<path d="M401.228 273.522H372.446V336.798H401.228V273.522Z" fill="#FAFAFA"/>
<path d="M394.017 278.729H379.636V316.338H394.017V278.729Z" fill="#FAFAFA"/>
<path d="M391.101 327.946C391.101 327.281 390.85 326.632 390.381 326.079C389.911 325.527 389.243 325.096 388.462 324.842C387.682 324.587 386.822 324.521 385.993 324.65C385.164 324.78 384.403 325.1 383.805 325.57C383.207 326.04 382.8 326.638 382.635 327.29C382.47 327.942 382.555 328.617 382.879 329.231C383.202 329.845 383.75 330.37 384.453 330.739C385.155 331.108 385.982 331.305 386.827 331.305C387.388 331.305 387.944 331.218 388.462 331.049C388.981 330.881 389.452 330.633 389.849 330.321C390.246 330.009 390.561 329.639 390.775 329.231C390.99 328.824 391.101 328.387 391.101 327.946Z" fill="#FAFAFA"/>
<path d="M332.362 273.522H303.58V336.798H332.362V273.522Z" fill="#FAFAFA"/>
<path d="M325.151 278.729H310.77V316.338H325.151V278.729Z" fill="#FAFAFA"/>
<path d="M322.234 327.946C322.234 327.281 321.983 326.632 321.514 326.079C321.044 325.527 320.377 325.096 319.596 324.842C318.815 324.587 317.956 324.521 317.127 324.65C316.297 324.78 315.536 325.1 314.938 325.57C314.341 326.04 313.934 326.638 313.769 327.29C313.604 327.942 313.688 328.617 314.012 329.231C314.335 329.845 314.883 330.37 315.586 330.739C316.289 331.108 317.115 331.305 317.96 331.305C318.522 331.305 319.077 331.218 319.596 331.049C320.114 330.881 320.585 330.633 320.982 330.321C321.379 330.009 321.694 329.639 321.909 329.231C322.124 328.824 322.234 328.387 322.234 327.946Z" fill="#FAFAFA"/>
<path d="M367.848 273.522H339.066V336.798H367.848V273.522Z" fill="#FAFAFA"/>
<path d="M360.637 278.729H346.256V316.338H360.637V278.729Z" fill="#FAFAFA"/>
<path d="M357.72 327.946C357.72 327.281 357.47 326.632 357 326.079C356.531 325.527 355.863 325.096 355.082 324.842C354.301 324.587 353.442 324.521 352.613 324.65C351.784 324.78 351.022 325.1 350.425 325.57C349.827 326.04 349.42 326.638 349.255 327.29C349.09 327.942 349.175 328.617 349.498 329.231C349.822 329.845 350.369 330.37 351.072 330.739C351.775 331.108 352.601 331.305 353.447 331.305C354.008 331.305 354.564 331.218 355.082 331.049C355.601 330.881 356.072 330.633 356.469 330.321C356.865 330.009 357.18 329.639 357.395 329.231C357.61 328.824 357.72 328.387 357.72 327.946Z" fill="#FAFAFA"/>
<path d="M63.6405 351.017H34.8584V414.292H63.6405V351.017Z" fill="#FAFAFA"/>
<path d="M56.4302 356.208H42.0493V393.817H56.4302V356.208Z" fill="#8C8C8C"/>
<path d="M49.2601 408.784C51.6204 408.784 53.5339 407.28 53.5339 405.424C53.5339 403.569 51.6204 402.064 49.2601 402.064C46.8998 402.064 44.9863 403.569 44.9863 405.424C44.9863 407.28 46.8998 408.784 49.2601 408.784Z" fill="#8C8C8C"/>
<path d="M104.738 351.017H75.9556V414.292H104.738V351.017Z" fill="#FAFAFA"/>
<path d="M97.5269 356.208H83.146V393.817H97.5269V356.208Z" fill="#8C8C8C"/>
<path d="M90.3568 408.784C92.7171 408.784 94.6306 407.28 94.6306 405.424C94.6306 403.569 92.7171 402.064 90.3568 402.064C87.9964 402.064 86.083 403.569 86.083 405.424C86.083 407.28 87.9964 408.784 90.3568 408.784Z" fill="#8C8C8C"/>
<path d="M145.835 351.017H117.053V414.292H145.835V351.017Z" fill="#8C8C8C"/>
<path d="M138.624 356.208H124.243V393.817H138.624V356.208Z" fill="#FAFAFA"/>
<path d="M131.433 408.784C133.794 408.784 135.707 407.28 135.707 405.424C135.707 403.569 133.794 402.064 131.433 402.064C129.073 402.064 127.16 403.569 127.16 405.424C127.16 407.28 129.073 408.784 131.433 408.784Z" fill="#FAFAFA"/>
<path d="M186.932 351.017H158.15V414.292H186.932V351.017Z" fill="#FAFAFA"/>
<path d="M179.721 356.208H165.34V393.817H179.721V356.208Z" fill="#8C8C8C"/>
<path d="M172.531 408.784C174.891 408.784 176.804 407.28 176.804 405.424C176.804 403.569 174.891 402.064 172.531 402.064C170.17 402.064 168.257 403.569 168.257 405.424C168.257 407.28 170.17 408.784 172.531 408.784Z" fill="#8C8C8C"/>
<path d="M22.9284 168.133H14.3809V496.421H22.9284V168.133Z" fill="#FAFAFA"/>
<path d="M222.823 168.133H214.276V496.421H222.823V168.133Z" fill="#FAFAFA"/>
<path d="M233.721 185.186H0V189.771H233.721V185.186Z" fill="#FAFAFA"/>
<path d="M233.721 261.294H0V265.88H233.721V261.294Z" fill="#FAFAFA"/>
<path d="M233.721 337.419H0V342.005H233.721V337.419Z" fill="#FAFAFA"/>
<path d="M233.721 413.528H0V418.114H233.721V413.528Z" fill="#FAFAFA"/>
<path d="M161.715 198.019H132.933V261.294H161.715V198.019Z" fill="#8C8C8C"/>
<path d="M154.504 203.209H140.123V240.818H154.504V203.209Z" fill="#FAFAFA"/>
<path d="M151.608 252.425C151.608 251.758 151.356 251.105 150.884 250.55C150.412 249.995 149.741 249.562 148.957 249.307C148.172 249.051 147.309 248.984 146.476 249.115C145.643 249.245 144.878 249.566 144.277 250.038C143.677 250.511 143.268 251.112 143.102 251.767C142.936 252.422 143.021 253.1 143.346 253.717C143.671 254.334 144.222 254.861 144.928 255.232C145.634 255.603 146.464 255.801 147.314 255.801C148.452 255.801 149.545 255.445 150.35 254.812C151.155 254.179 151.608 253.321 151.608 252.425Z" fill="#FAFAFA"/>
<path d="M127.95 198.019H99.1675V261.294H127.95V198.019Z" fill="#FAFAFA"/>
<path d="M120.739 203.209H106.358V240.818H120.739V203.209Z" fill="#8C8C8C"/>
<path d="M113.569 255.785C115.93 255.785 117.843 254.281 117.843 252.425C117.843 250.57 115.93 249.065 113.569 249.065C111.209 249.065 109.295 250.57 109.295 252.425C109.295 254.281 111.209 255.785 113.569 255.785Z" fill="#8C8C8C"/>
<path d="M94.205 198.019H65.4229V261.294H94.205V198.019Z" fill="#FAFAFA"/>
<path d="M86.9947 203.209H72.6138V240.818H86.9947V203.209Z" fill="#8C8C8C"/>
<path d="M79.804 255.785C82.1644 255.785 84.0778 254.281 84.0778 252.425C84.0778 250.57 82.1644 249.065 79.804 249.065C77.4437 249.065 75.5303 250.57 75.5303 252.425C75.5303 254.281 77.4437 255.785 79.804 255.785Z" fill="#8C8C8C"/>
<path d="M201.373 198.019H172.591V261.294H201.373V198.019Z" fill="#FAFAFA"/>
<path d="M194.163 203.209H179.782V240.818H194.163V203.209Z" fill="#8C8C8C"/>
<path d="M186.993 255.785C189.353 255.785 191.267 254.281 191.267 252.425C191.267 250.57 189.353 249.065 186.993 249.065C184.633 249.065 182.719 250.57 182.719 252.425C182.719 254.281 184.633 255.785 186.993 255.785Z" fill="#8C8C8C"/>
<path d="M119.787 163.07V185.695H200.28V163.07H119.787Z" fill="#FAFAFA"/>
<path d="M126.41 168.721V180.026H174.252V168.721H126.41Z" fill="#8C8C8C"/>
<path d="M189.018 171.014C188.168 171.011 187.336 171.206 186.627 171.575C185.918 171.944 185.365 172.47 185.037 173.086C184.709 173.703 184.621 174.382 184.784 175.038C184.948 175.694 185.355 176.297 185.955 176.77C186.554 177.244 187.319 177.567 188.153 177.699C188.986 177.83 189.851 177.764 190.637 177.509C191.423 177.254 192.094 176.822 192.567 176.266C193.04 175.711 193.292 175.058 193.292 174.389C193.292 173.497 192.843 172.641 192.042 172.008C191.241 171.375 190.154 171.018 189.018 171.014Z" fill="#8C8C8C"/>
<path d="M116.79 140.841V163.467H197.282V140.841H116.79Z" fill="#FAFAFA"/>
<path d="M123.392 146.494V157.799H171.234V146.494H123.392Z" fill="#8C8C8C"/>
<path d="M186 148.786C185.155 148.786 184.328 148.983 183.625 149.352C182.923 149.722 182.375 150.246 182.051 150.86C181.728 151.474 181.643 152.15 181.808 152.801C181.973 153.453 182.38 154.052 182.978 154.521C183.576 154.991 184.337 155.311 185.166 155.441C185.995 155.57 186.854 155.504 187.635 155.25C188.416 154.995 189.084 154.565 189.553 154.012C190.023 153.46 190.274 152.81 190.274 152.146C190.276 151.704 190.168 151.266 189.954 150.858C189.74 150.449 189.425 150.078 189.028 149.765C188.63 149.453 188.158 149.206 187.639 149.038C187.119 148.87 186.562 148.784 186 148.786Z" fill="#8C8C8C"/>
<path d="M58.2533 198.019H29.4712V261.294H58.2533V198.019Z" fill="#FAFAFA"/>
<path d="M51.0421 203.209H36.6611V240.818H51.0421V203.209Z" fill="#8C8C8C"/>
<path d="M43.8514 255.785C46.2117 255.785 48.1252 254.281 48.1252 252.425C48.1252 250.57 46.2117 249.065 43.8514 249.065C41.4911 249.065 39.5776 250.57 39.5776 252.425C39.5776 254.281 41.4911 255.785 43.8514 255.785Z" fill="#8C8C8C"/>
<path d="M201.373 273.522H172.591V336.798H201.373V273.522Z" fill="#FAFAFA"/>
<path d="M194.163 278.729H179.782V316.338H194.163V278.729Z" fill="#8C8C8C"/>
<path d="M191.267 327.946C191.271 327.277 191.022 326.622 190.551 326.065C190.081 325.507 189.411 325.072 188.625 324.815C187.84 324.557 186.975 324.489 186.14 324.619C185.305 324.749 184.538 325.07 183.936 325.543C183.335 326.016 182.925 326.619 182.76 327.276C182.595 327.932 182.682 328.612 183.009 329.229C183.337 329.847 183.89 330.374 184.6 330.744C185.309 331.113 186.142 331.309 186.993 331.306C188.125 331.302 189.209 330.946 190.009 330.317C190.809 329.688 191.261 328.836 191.267 327.946Z" fill="#8C8C8C"/>
<path d="M167.994 273.522H139.211V336.798H167.994V273.522Z" fill="#8C8C8C"/>
<path d="M160.803 278.729H146.422V316.338H160.803V278.729Z" fill="#FAFAFA"/>
<path d="M157.886 327.946C157.886 327.281 157.636 326.632 157.166 326.079C156.697 325.527 156.029 325.096 155.248 324.842C154.467 324.587 153.608 324.521 152.779 324.65C151.95 324.78 151.188 325.1 150.591 325.57C149.993 326.04 149.586 326.638 149.421 327.29C149.256 327.942 149.341 328.617 149.664 329.231C149.988 329.845 150.535 330.37 151.238 330.739C151.941 331.108 152.767 331.305 153.613 331.305C154.744 331.301 155.828 330.946 156.629 330.317C157.429 329.687 157.881 328.835 157.886 327.946Z" fill="#FAFAFA"/>
<path d="M65.079 273.522H36.2969V336.798H65.079V273.522Z" fill="#8C8C8C"/>
<path d="M57.8888 278.729H43.5078V316.338H57.8888V278.729Z" fill="#FAFAFA"/>
<path d="M54.9714 327.946C54.9714 327.281 54.7207 326.632 54.2511 326.079C53.7815 325.527 53.114 325.096 52.3331 324.842C51.5522 324.587 50.6929 324.521 49.8638 324.65C49.0348 324.78 48.2733 325.1 47.6756 325.57C47.0779 326.04 46.6709 326.638 46.5059 327.29C46.341 327.942 46.4257 328.617 46.7492 329.231C47.0726 329.845 47.6204 330.37 48.3232 330.739C49.026 331.108 49.8523 331.305 50.6976 331.305C51.8294 331.301 52.9134 330.946 53.7137 330.317C54.5141 329.687 54.966 328.835 54.9714 327.946Z" fill="#FAFAFA"/>
<path d="M99.1273 273.522H70.3452V336.798H99.1273V273.522Z" fill="#8C8C8C"/>
<path d="M91.9366 278.729H77.5557V316.338H91.9366V278.729Z" fill="#FAFAFA"/>
<path d="M89.0197 327.946C89.0197 327.281 88.7691 326.632 88.2995 326.079C87.8298 325.527 87.1624 325.096 86.3814 324.842C85.6005 324.587 84.7412 324.521 83.9122 324.65C83.0831 324.78 82.3216 325.1 81.7239 325.57C81.1262 326.04 80.7192 326.638 80.5543 327.29C80.3894 327.942 80.474 328.617 80.7975 329.231C81.121 329.845 81.6688 330.37 82.3716 330.739C83.0744 331.108 83.9007 331.305 84.7459 331.305C85.8778 331.301 86.9617 330.946 87.7621 330.317C88.5624 329.687 89.0144 328.835 89.0197 327.946Z" fill="#FAFAFA"/>
<path d="M134.614 273.522H105.832V336.798H134.614V273.522Z" fill="#8C8C8C"/>
<path d="M127.423 278.729H113.042V316.338H127.423V278.729Z" fill="#FAFAFA"/>
<path d="M124.507 327.946C124.507 327.281 124.256 326.632 123.786 326.079C123.317 325.527 122.649 325.096 121.868 324.842C121.087 324.587 120.228 324.521 119.399 324.65C118.57 324.78 117.808 325.1 117.211 325.57C116.613 326.04 116.206 326.638 116.041 327.29C115.876 327.942 115.961 328.617 116.284 329.231C116.608 329.845 117.156 330.37 117.858 330.739C118.561 331.108 119.387 331.305 120.233 331.305C121.365 331.301 122.449 330.946 123.249 330.317C124.049 329.687 124.501 328.835 124.507 327.946Z" fill="#FAFAFA"/>
<path d="M112.718 497.058H69.5553L63.0737 440.804H119.2L112.718 497.058Z" fill="#92E3A9" stroke="#263238" stroke-linecap="round" stroke-linejoin="round"/>
<path d="M119.099 438.766H63.155C61.5217 438.766 60.1978 439.806 60.1978 441.09V441.313C60.1978 442.597 61.5217 443.638 63.155 443.638H119.099C120.732 443.638 122.056 442.597 122.056 441.313V441.09C122.056 439.806 120.732 438.766 119.099 438.766Z" fill="white" stroke="#263238" stroke-linecap="round" stroke-linejoin="round"/>
<path d="M65.8081 360.237C66.6689 358.714 67.9651 357.368 69.5958 356.304" stroke="#263238" stroke-linecap="round" stroke-linejoin="round"/>
<path d="M80.7565 435.724C80.7565 435.724 93.5171 434.052 102.551 422.349C111.584 410.647 98.8441 404.835 78.1031 390.998C65.2008 382.416 62.3854 372.688 63.7627 365.522" stroke="#263238" stroke-linecap="round" stroke-linejoin="round"/>
<path d="M107.918 433.813C112.648 431.497 116.058 427.835 117.438 423.591C120.111 415.63 116.385 406.458 101.497 398.943C86.61 391.428 78.6296 389.39 71.7227 382.225" stroke="#263238" stroke-linecap="round" stroke-linejoin="round"/>
<path d="M97.2437 436.966C99.5932 436.68 101.883 436.144 104.049 435.374" stroke="#263238" stroke-linecap="round" stroke-linejoin="round"/>
<path d="M283.871 346.559C274.23 338.104 270.3 328.694 273.217 315.781C278.281 293.49 309.392 268.699 309.392 253.11C309.392 237.522 323.267 201.219 365.66 199.07C408.054 196.92 429.564 213.671 438.578 250.356C447.591 287.041 447.145 293.458 457.637 310.574C461.952 317.628 466.833 324.745 468.616 332.531C472.16 347.976 450.832 355.523 435.742 359.775C393.369 371.685 340.342 379.55 300.44 357.975C294.357 354.703 288.795 350.871 283.871 346.559Z" fill="#263238" stroke="#263238" stroke-linecap="round" stroke-linejoin="round"/>
<path d="M437.403 278.713C439.714 279.553 442.13 280.198 444.614 280.64" stroke="white" stroke-miterlimit="10" stroke-linecap="round"/>
<path d="M379.271 228.08C379.271 228.08 395.982 259.129 415.73 269.287C420.166 271.564 424.055 273.379 427.417 274.844" stroke="white" stroke-miterlimit="10" stroke-linecap="round"/>
<path d="M353.488 237.649C343.887 250.69 325.597 271.357 301.007 280.035" stroke="white" stroke-miterlimit="10" stroke-linecap="round"/>
<path d="M361.022 226.281C361.022 226.281 359.847 228.383 357.599 231.774" stroke="white" stroke-miterlimit="10" stroke-linecap="round"/>
<path d="M316.198 280.64C316.198 280.64 285.005 305.065 288.854 333.725" stroke="white" stroke-miterlimit="10" stroke-linecap="round"/>
<path d="M324.563 285.958C324.563 285.958 310.122 317.023 314.679 336.735" stroke="white" stroke-miterlimit="10" stroke-linecap="round"/>
<path d="M338.174 317.007C338.174 317.007 266.229 332.277 260.781 333.806C255.332 335.334 256.122 345.126 256.122 347.26C256.122 349.394 240.181 413.593 240.181 413.593C235.08 416.121 230.262 418.987 225.78 422.159C219.562 426.745 221.891 432.859 221.891 434.387C221.891 435.916 222.276 436.521 220.332 438.049C218.387 439.578 214.113 436.839 214.903 446.313C215.693 455.787 211.399 478.158 222.276 479.32C233.153 480.483 238.622 479.639 254.562 475.356C263.949 472.897 271.843 467.792 276.721 461.026V497.106H471.937C471.937 497.106 491.767 451.552 492.942 421.602C494.116 391.652 499.16 347.61 492.172 339.363C485.184 331.115 448.219 321.943 415.548 318.886C382.877 315.829 344.008 315.781 338.174 317.007Z" fill="#92E3A9"/>
<mask id="mask0_144_327" style="mask-type:luminance" maskUnits="userSpaceOnUse" x="214" y="316" width="282" height="182">
<path d="M338.174 317.007C338.174 317.007 266.229 332.277 260.781 333.806C255.332 335.334 256.122 345.126 256.122 347.26C256.122 349.394 240.181 413.593 240.181 413.593C235.08 416.121 230.262 418.987 225.78 422.159C219.562 426.745 221.891 432.859 221.891 434.387C221.891 435.916 222.276 436.521 220.332 438.049C218.387 439.578 214.113 436.839 214.903 446.313C215.693 455.787 211.399 478.158 222.276 479.32C233.153 480.483 238.622 479.639 254.562 475.356C263.949 472.897 271.843 467.792 276.721 461.026V497.106H471.937C471.937 497.106 491.767 451.552 492.942 421.602C494.116 391.652 499.16 347.61 492.172 339.363C485.184 331.115 448.219 321.943 415.548 318.886C382.877 315.829 344.008 315.781 338.174 317.007Z" fill="white"/>
</mask>
<g mask="url(#mask0_144_327)">
<g style="mix-blend-mode:multiply" opacity="0.24">
<path d="M484.738 334.363C485.751 335.303 486.176 336.099 485.305 336.417C482.632 337.42 470.074 340.605 468.555 344.792C467.035 348.98 467.663 332.055 464.747 337.006C461.83 341.958 457.88 361.559 441.899 401.078C429.118 432.62 422.191 472.936 426.505 497.058H471.937C471.937 497.058 491.767 451.504 492.941 421.554C494.116 391.604 499.16 347.563 492.172 339.315C490.148 337.285 487.618 335.6 484.738 334.363Z" fill="black"/>
</g>
<path d="M340.888 308.442C338.166 309.885 336.012 311.898 334.67 314.253C331.956 318.521 309.007 351.846 307.063 353.375C305.118 354.903 317.555 354.601 322.619 352.77C327.682 350.939 337 350.939 337 350.939L345.952 356.432L373.56 364.998C373.56 364.998 385.996 357.96 392.214 353.996C398.432 350.031 401.167 348.487 401.167 348.487C406.567 349.923 411.776 351.768 416.723 353.996C422.941 357.053 420.612 358.581 422.941 357.053C425.27 355.524 424.116 352.467 420.915 348.184C417.715 343.901 408.094 320.368 396.022 311.563C383.95 302.757 355.269 299.876 340.888 308.442Z" fill="#92E3A9" stroke="#263238" stroke-linecap="round" stroke-linejoin="round"/>
<path d="M397.277 384.566L450.953 384.869L449.778 396.795L422.171 407.797L397.277 397.097V384.566Z" fill="#92E3A9" stroke="#263238" stroke-linecap="round" stroke-linejoin="round"/>
<path d="M276.721 380.889L330.397 381.191L329.222 393.117L301.614 404.119L276.721 393.42V380.889Z" fill="#92E3A9" stroke="#263238" stroke-linecap="round" stroke-linejoin="round"/>
<g style="mix-blend-mode:multiply" opacity="0.24">
<path d="M277.369 472.331C277.369 472.331 274.331 381.924 276.62 371.733C278.908 361.543 262.907 331.02 263.657 347.197C264.406 363.374 269.733 387.751 270.179 393.818C270.624 399.884 252.233 396.891 253.752 404.677C255.271 412.463 265.905 412.447 269.004 424.436C272.103 436.426 246.136 435.805 246.136 442.397C246.136 448.989 255.291 457.953 247.675 463.351C240.06 468.748 235.766 461.52 235.766 461.52C238.476 467.198 238.997 473.379 237.264 479.289C243.161 478.335 248.962 477.047 254.623 475.436C264.009 472.977 271.904 467.872 276.782 461.106V474.098L277.369 472.331Z" fill="black"/>
</g>
</g>
<path d="M338.174 317.007C338.174 317.007 266.229 332.277 260.781 333.806C255.332 335.334 256.122 345.126 256.122 347.26C256.122 349.394 240.181 413.593 240.181 413.593C235.08 416.121 230.262 418.987 225.78 422.159C219.562 426.745 221.891 432.859 221.891 434.387C221.891 435.916 222.276 436.521 220.332 438.049C218.387 439.578 214.113 436.839 214.903 446.313C215.693 455.787 211.399 478.158 222.276 479.32C233.153 480.483 238.622 479.639 254.562 475.356C263.949 472.897 271.843 467.792 276.721 461.026V497.106H471.937C471.937 497.106 491.767 451.552 492.942 421.602C494.116 391.652 499.16 347.61 492.172 339.363C485.184 331.115 448.219 321.943 415.548 318.886C382.877 315.829 344.008 315.781 338.174 317.007Z" stroke="#263238" stroke-linecap="round" stroke-linejoin="round"/>
<path d="M276.721 408.704V461.598C276.721 461.598 273.217 427.97 263.9 419.404" stroke="#263238" stroke-linecap="round" stroke-linejoin="round"/>
<path d="M224.241 437.221C224.241 437.221 244.861 443.032 249.134 454.942C253.408 466.852 248.365 474.511 248.365 474.511" stroke="#263238" stroke-linecap="round" stroke-linejoin="round"/>
<path d="M199.57 457.267C199.57 457.267 214.62 451.885 215.774 450.898C216.929 449.91 230.175 450.404 235.705 461.486C241.235 472.568 237.224 477.886 234.469 479.08C231.715 480.274 217.273 483.586 213.283 483.586C209.293 483.586 192.522 461.375 199.57 457.267Z" fill="#92E3A9" stroke="#263238" stroke-linecap="round" stroke-linejoin="round"/>
<path d="M343.218 313.95C343.218 313.95 336.615 496.628 339.329 496.628H386.786C386.786 496.628 387.171 363.469 390.27 350.938C393.369 338.407 400.782 316.084 399.607 309.969C398.433 303.855 345.567 307.215 345.567 307.215C344.376 309.359 343.585 311.628 343.218 313.95Z" fill="white"/>
<mask id="mask1_144_327" style="mask-type:luminance" maskUnits="userSpaceOnUse" x="338" y="306" width="62" height="191">
<path d="M343.218 313.95C343.218 313.95 336.615 496.628 339.329 496.628H386.786C386.786 496.628 387.171 363.469 390.27 350.938C393.369 338.407 400.782 316.084 399.607 309.969C398.433 303.855 345.567 307.215 345.567 307.215C344.376 309.359 343.585 311.628 343.218 313.95Z" fill="white"/>
</mask>
<g mask="url(#mask1_144_327)">
<path d="M343.218 313.95C343.218 313.95 336.615 496.628 339.329 496.628H386.786C386.786 496.628 387.171 363.469 390.27 350.938C393.369 338.407 400.782 316.084 399.607 309.969C398.433 303.855 345.567 307.215 345.567 307.215C344.376 309.359 343.585 311.628 343.218 313.95Z" fill="#92E3A9"/>
<path opacity="0.7" d="M343.218 313.95C343.218 313.95 336.615 496.628 339.329 496.628H386.786C386.786 496.628 387.171 363.469 390.27 350.938C393.369 338.407 400.782 316.084 399.607 309.969C398.433 303.855 345.567 307.215 345.567 307.215C344.376 309.359 343.585 311.628 343.218 313.95Z" fill="white"/>
</g>
<path d="M343.218 313.95C343.218 313.95 336.615 496.628 339.329 496.628H386.786C386.786 496.628 387.171 363.469 390.27 350.938C393.369 338.407 400.782 316.084 399.607 309.969C398.433 303.855 345.567 307.215 345.567 307.215C344.376 309.359 343.585 311.628 343.218 313.95Z" stroke="#263238" stroke-linecap="round" stroke-linejoin="round"/>
<path d="M389.986 352.45C374.419 356.383 357.773 356.863 341.881 353.835C340.099 408.449 337.425 496.627 339.329 496.627H386.786C386.786 496.627 387.151 371.828 389.986 352.45Z" fill="white"/>
<mask id="mask2_144_327" style="mask-type:luminance" maskUnits="userSpaceOnUse" x="338" y="352" width="52" height="145">
<path d="M389.986 352.45C374.419 356.383 357.773 356.863 341.881 353.835C340.099 408.449 337.425 496.627 339.329 496.627H386.786C386.786 496.627 387.151 371.828 389.986 352.45Z" fill="white"/>
</mask>
<g mask="url(#mask2_144_327)">
<path d="M386.887 478.062C386.887 473.063 386.887 467.41 387.009 461.344H338.944C338.944 467.458 338.762 473.094 338.721 478.062H386.887Z" fill="#263238"/>
<path d="M339.694 429.499C339.552 435.231 339.41 440.82 339.289 446.218H387.211C387.211 440.756 387.333 435.151 387.414 429.499H339.694Z" fill="#263238"/>
<path d="M340.524 397.654C340.362 403.211 340.2 408.8 340.058 414.373H387.596C387.697 408.673 387.799 403.052 387.92 397.654H340.524Z" fill="#263238"/>
<path d="M341.496 365.81C341.334 371.175 341.152 376.78 340.969 382.528H388.305C388.487 376.271 388.71 370.602 388.953 365.81H341.496Z" fill="#263238"/>
</g>
<path d="M389.986 352.45C374.419 356.383 357.773 356.863 341.881 353.835C340.099 408.449 337.425 496.627 339.329 496.627H386.786C386.786 496.627 387.151 371.828 389.986 352.45Z" stroke="#263238" stroke-linecap="round" stroke-linejoin="round"/>
<path d="M365.782 235.007C365.782 235.007 358.773 252.426 328.452 268.03C328.452 268.03 326.426 289.732 334.67 305.925C342.914 322.118 364.607 334.968 373.944 333.439C383.282 331.911 401.552 315.399 407.77 303.792C413.988 292.184 414.008 271.39 414.008 271.39C414.008 271.39 382.492 255.244 365.782 235.007Z" fill="white" stroke="#263238" stroke-linecap="round" stroke-linejoin="round"/>
<path d="M363.452 294.078C363.452 294.078 362.662 304.157 364.607 305.081C366.551 306.004 370.055 305.686 370.44 302.326" stroke="#263238" stroke-linecap="round" stroke-linejoin="round"/>
<path d="M359.563 311.434C359.563 311.434 371.615 313.265 378.218 310.208" stroke="#263238" stroke-linecap="round" stroke-linejoin="round"/>
<path d="M359.32 263.906C359.32 263.906 342.995 260.483 335.987 270.036" stroke="#263238" stroke-linecap="round" stroke-linejoin="round"/>
<path d="M375.018 271.23C375.018 271.23 386.341 262.265 402.301 270.354" stroke="#263238" stroke-linecap="round" stroke-linejoin="round"/>
<path d="M340.504 283.061C340.504 283.061 347.897 288.57 359.949 284.653" stroke="#263238" stroke-linecap="round" stroke-linejoin="round"/>
<path d="M377.388 284.366C377.388 284.366 387.515 288.044 396.042 283.761" stroke="#263238" stroke-linecap="round" stroke-linejoin="round"/>
<path d="M348.14 298.346C357.156 298.346 364.465 292.6 364.465 285.512C364.465 278.424 357.156 272.679 348.14 272.679C339.124 272.679 331.814 278.424 331.814 285.512C331.814 292.6 339.124 298.346 348.14 298.346Z" stroke="#263238" stroke-width="0.75" stroke-linecap="round" stroke-linejoin="round"/>
<path d="M387.111 298.346C396.127 298.346 403.436 292.6 403.436 285.512C403.436 278.424 396.127 272.679 387.111 272.679C378.094 272.679 370.785 278.424 370.785 285.512C370.785 292.6 378.094 298.346 387.111 298.346Z" stroke="#263238" stroke-width="0.75" stroke-linecap="round" stroke-linejoin="round"/>
<path d="M364.465 285.512H370.765" stroke="#263238" stroke-width="0.75" stroke-linecap="round" stroke-linejoin="round"/>
<path d="M403.436 285.512H412.996" stroke="#263238" stroke-width="0.75" stroke-linecap="round" stroke-linejoin="round"/>
<path d="M327.439 285.512H331.773" stroke="#263238" stroke-width="0.75" stroke-linecap="round" stroke-linejoin="round"/>
<path d="M354.277 286.309C354.277 286.309 358.429 286.452 354.54 287.583C350.652 288.713 346.722 288.156 342.691 285.465C342.691 285.465 350.409 286.261 354.277 286.309Z" fill="#263238" stroke="#263238" stroke-linecap="round" stroke-linejoin="round"/>
<path d="M382.431 285.544C382.431 285.544 378.38 285.257 381.965 286.77C385.55 288.283 389.622 288.155 394.118 285.878C394.057 285.958 386.28 285.958 382.431 285.544Z" fill="#263238" stroke="#263238" stroke-linecap="round" stroke-linejoin="round"/>
<path d="M443.945 391.89L437.727 341.448C437.727 341.448 424.5 339.314 419.842 336.862C415.183 334.41 409.714 331.369 409.714 331.369C409.714 331.369 406.615 333.503 404.286 331.369C401.957 329.236 394.564 325 393.389 321.577C392.214 318.154 400.397 313.616 405.44 308.138C410.484 302.661 415.953 297.439 419.842 297.741C423.731 298.044 440.441 311.434 449.069 321.895C457.698 332.356 461.121 335.031 461.506 338.709C461.891 342.387 469.608 361.001 469.608 361.001L471.633 392.495L443.945 391.89Z" fill="white" stroke="#263238" stroke-linecap="round" stroke-linejoin="round"/>
<path d="M409.714 331.369C409.714 331.369 402.058 325.43 402.058 323.646" stroke="#263238" stroke-linecap="round" stroke-linejoin="round"/>
<path d="M430.718 362.704L438.111 395.106L446.213 359.026L477.71 356.287C477.71 356.287 477.426 394.803 477.426 404.58C477.426 414.356 482.875 459.002 484.434 474.638C485.994 490.274 475.482 495.337 461.101 495.719C446.72 496.102 435.033 485.641 430.374 464.543C425.716 443.446 431.144 404.93 428.815 398.513C426.485 392.097 416.662 365.809 416.662 365.809L430.718 362.704Z" fill="#92E3A9"/>
<mask id="mask3_144_327" style="mask-type:luminance" maskUnits="userSpaceOnUse" x="416" y="356" width="69" height="140">
<path d="M430.718 362.704L438.111 395.106L446.213 359.026L477.71 356.287C477.71 356.287 477.426 394.803 477.426 404.58C477.426 414.356 482.875 459.002 484.434 474.638C485.994 490.274 475.482 495.337 461.101 495.719C446.72 496.102 435.033 485.641 430.374 464.543C425.716 443.446 431.144 404.93 428.815 398.513C426.485 392.097 416.662 365.809 416.662 365.809L430.718 362.704Z" fill="white"/>
</mask>
<g mask="url(#mask3_144_327)">
<g style="mix-blend-mode:multiply" opacity="0.24">
<path d="M466.043 495.337C477.77 493.968 485.751 488.316 484.394 474.638C482.834 459.05 477.386 414.42 477.386 404.58C477.386 394.74 477.77 356.287 477.77 356.287L472.666 356.733C469.729 364.423 453.363 409.563 461.688 441.79C470.843 477.122 478.459 480.705 466.266 495.083L466.043 495.337Z" fill="black"/>
</g>
</g>
<path d="M430.718 362.704L438.111 395.106L446.213 359.026L477.71 356.287C477.71 356.287 477.426 394.803 477.426 404.58C477.426 414.356 482.875 459.002 484.434 474.638C485.994 490.274 475.482 495.337 461.101 495.719C446.72 496.102 435.033 485.641 430.374 464.543C425.716 443.446 431.144 404.93 428.815 398.513C426.485 392.097 416.662 365.809 416.662 365.809L430.718 362.704Z" stroke="#263238" stroke-linecap="round" stroke-linejoin="round"/>
<path d="M183.468 488.969C183.468 488.969 182.536 493.889 188.208 495.004C193.879 496.118 207.511 493.332 208.645 491.039C208.982 490.41 209.078 489.718 208.919 489.047C208.761 488.376 208.356 487.757 207.754 487.265H195.317C195.317 487.265 185.939 484.989 183.468 488.969Z" fill="white" stroke="#263238" stroke-linecap="round" stroke-linejoin="round"/>
<path d="M127.788 435.915L179.336 464.065L183.185 460.037L131.393 431.647L127.788 435.915Z" fill="#263238" stroke="#263238" stroke-linecap="round" stroke-linejoin="round"/>
<path d="M139.758 442.443L143.769 438.43L131.393 431.647L127.788 435.915L139.758 442.443Z" fill="white" stroke="#263238" stroke-linecap="round" stroke-linejoin="round"/>
<path d="M191.55 488.539C199.619 488.24 207.297 485.721 213.242 481.421C222.479 474.352 223.107 469.623 210.63 459.464C198.153 449.306 170.869 461.2 169.998 465.69C169.127 470.18 191.55 488.539 191.55 488.539Z" fill="white" stroke="#263238" stroke-linecap="round" stroke-linejoin="round"/>
<path d="M219.157 470.18C219.157 470.18 215.633 475.96 212.291 478.142C208.949 480.323 203.642 480.912 200.502 477.393C197.363 473.874 194.142 462.952 191.408 462.729C188.673 462.506 175.042 458.987 171.153 454.768C167.264 450.548 167.467 447.284 176.034 449.29C184.602 451.296 207.531 453.637 207.531 453.637C207.531 453.637 212.959 456.201 216.726 465.197" fill="white"/>
<path d="M219.157 470.18C219.157 470.18 215.633 475.96 212.291 478.142C208.949 480.323 203.642 480.912 200.502 477.393C197.363 473.874 194.142 462.952 191.408 462.729C188.673 462.506 175.042 458.987 171.153 454.768C167.264 450.548 167.467 447.284 176.034 449.29C184.602 451.296 207.531 453.637 207.531 453.637C207.531 453.637 212.959 456.201 216.726 465.197" stroke="#263238" stroke-linecap="round" stroke-linejoin="round"/>
<path d="M175.062 483.715C176.278 484.893 180.268 490.227 182.152 490.593C184.035 490.96 195.601 485.18 200.057 480.769C204.513 476.359 196.209 470.245 193.839 469.385C191.469 468.525 175.062 483.715 175.062 483.715Z" fill="white" stroke="#263238" stroke-linecap="round" stroke-linejoin="round"/>
<path d="M169.168 467.792C169.168 467.792 159.041 472.569 161.451 475.849C163.861 479.129 171.963 484.112 174.556 483.237C177.148 482.361 194.608 475.976 194.527 472.489C194.446 469.002 194.163 464.846 185.23 465.42C179.787 465.778 174.405 466.573 169.168 467.792Z" fill="white" stroke="#263238" stroke-linecap="round" stroke-linejoin="round"/>
<path d="M159.041 454.561C159.041 454.561 154.119 462.426 158.636 465.834C163.152 469.241 191.043 469.162 192.461 465.149C193.879 461.137 183.428 460.277 175.751 457.682C168.074 455.086 160.114 452.698 159.041 454.561Z" fill="white" stroke="#263238" stroke-linecap="round" stroke-linejoin="round"/>
<path d="M267.201 495.529C267.201 495.529 266.432 485.131 254.765 481.469C243.098 477.807 236.86 479.32 210.812 484.829C194.396 488.204 177.585 490.252 160.641 490.943V495.529H267.201Z" fill="white" stroke="#263238" stroke-linecap="round" stroke-linejoin="round"/>
<path d="M266.776 495.529C266.776 495.529 267.546 485.131 279.213 481.469C290.88 477.807 297.098 479.32 323.166 484.829C339.574 488.203 356.379 490.252 373.317 490.943V495.529H266.776Z" fill="white" stroke="#263238" stroke-linecap="round" stroke-linejoin="round"/>
<path d="M377.651 493.698H157.926V497.058H377.651V493.698Z" fill="#263238" stroke="#263238" stroke-linecap="round" stroke-linejoin="round"/>
<path d="M29.7949 497.058H736" stroke="#263238" stroke-linecap="round" stroke-linejoin="round"/>
<path d="M727.898 404.739H578.174L527.233 497.36H676.957L727.898 404.739Z" fill="white" stroke="#263238" stroke-linecap="round" stroke-linejoin="round"/>
<path d="M733.732 404.739H584.008L533.067 497.36H682.791L733.732 404.739Z" fill="#263238" stroke="#263238" stroke-linecap="round" stroke-linejoin="round"/>
<path d="M645.38 461.104C641.531 465.881 634.321 467.76 629.277 465.244C624.234 462.728 623.201 456.821 627.09 452.028C630.979 447.236 638.149 445.389 643.294 447.889C648.438 450.388 649.228 456.327 645.38 461.104Z" fill="white" stroke="#92E3A9" stroke-linecap="round" stroke-linejoin="round"/>
<path d="M529.178 493.697H419.903V497.057H529.178V493.697Z" fill="white" stroke="#263238" stroke-linecap="round" stroke-linejoin="round"/>
</svg>
