<svg width="199" height="255" viewBox="0 0 199 255" fill="none" xmlns="http://www.w3.org/2000/svg">
<path d="M146.527 157.681C150.555 149.888 152.606 141.214 152.498 132.43C152.39 123.646 150.127 115.025 145.909 107.335C141.692 99.6449 135.651 93.1241 128.325 88.3533C120.998 83.5824 112.614 80.7095 103.918 79.9904C95.2224 79.2712 86.4849 80.7281 78.4836 84.2314C70.4823 87.7347 63.4656 93.1756 58.0582 100.07C52.6507 106.964 49.0204 115.097 47.4904 123.746C45.9604 132.394 46.5781 141.289 49.2887 149.639L55.1411 156.597L52.6084 157.59C49.9189 159.029 47.3108 160.592 44.7841 162.28L37.8733 203.581L1.28447 229.791C0.426537 235.115 -0.00301231 240.5 1.58991e-05 245.893V255H199V245.893C199 207.752 177.788 174.584 146.527 157.681Z" fill="#635994"/>
<path d="M138.016 53.2768L106.845 24.6804C94.4888 24.6804 82.8835 47.3572 75.9547 37.4304C74.7426 35.7911 72.1194 36.0643 71.3686 37.8858L70.6269 39.7072C68.3652 44.933 64.2173 49.0995 59.0216 51.3643C58.7321 51.5465 58.3613 51.6376 57.9904 51.8197C55.7381 52.9126 49.8495 57.0108 49.75 66.0268L51.532 95.6251C52.6536 122.4 73.9014 145.168 99.6447 145.168C125.388 145.168 146.627 122.4 147.748 95.6251L149.25 67.0286C149.25 54.2786 139.797 53.2768 138.016 53.2768Z" fill="#FFD7C2"/>
<path d="M74.715 70.8534C80.0518 70.8534 84.3936 74.5874 87.1073 78.7767C84.644 79.5365 82.1714 80.2651 79.69 80.9624C75.8819 82.0461 72.0828 83.1208 68.1118 84.5142L63.5891 80.4159C63.1554 80.0138 62.8159 79.5196 62.5951 78.9692C62.3743 78.4188 62.2777 77.8258 62.3123 77.2332C62.3469 76.6406 62.5119 76.0631 62.7953 75.5425C63.0786 75.022 63.4734 74.5713 63.9509 74.2231C66.9359 72.0374 70.9159 70.8534 74.715 70.8534ZM124.284 70.8534C118.947 70.8534 114.605 74.5874 111.892 78.7767C114.286 79.4992 116.638 80.1852 118.947 80.8349C122.918 81.9642 126.835 83.0752 130.887 84.5142L135.41 80.4159C135.844 80.0138 136.183 79.5196 136.404 78.9692C136.625 78.4188 136.721 77.8258 136.687 77.2332C136.652 76.6406 136.487 76.0631 136.204 75.5425C135.92 75.022 135.526 74.5713 135.048 74.2231C131.889 72.0133 128.131 70.8368 124.284 70.8534Z" fill="black"/>
<path d="M63.5891 81.8733C64.3045 78.9221 66.0034 76.3072 68.4024 74.4647C70.8013 72.6222 73.7552 71.6636 76.7713 71.7489C79.7873 71.8341 82.6832 72.958 84.9757 74.9331C87.2682 76.9082 88.8187 79.615 89.3686 82.6019C89.64 83.8769 88.5545 85.1519 87.1977 85.1519H66.1218C64.4032 85.1519 63.1368 83.5126 63.5891 81.8733ZM135.5 81.8733C134.053 76.0448 128.807 71.7644 122.656 71.7644C116.234 71.7644 110.806 76.4091 109.721 82.6019C109.45 83.8769 110.535 85.1519 111.892 85.1519H132.968C134.686 85.1519 135.953 83.5126 135.5 81.8733Z" fill="white"/>
<path d="M69.8298 82.8752C69.8298 80.6047 70.7256 78.4273 72.3202 76.8218C73.9148 75.2164 76.0775 74.3145 78.3326 74.3145C80.5876 74.3145 82.7503 75.2164 84.3449 76.8218C85.9395 78.4273 86.8353 80.6047 86.8353 82.8752C86.8353 83.6037 86.6544 84.4234 86.383 85.152H70.1012C69.9203 84.4234 69.8298 83.6948 69.8298 82.8752ZM129.168 82.8752C129.168 78.1395 125.369 74.3145 120.665 74.3145C116.052 74.3145 112.253 78.1395 112.343 82.8752C112.343 83.6948 112.434 84.4234 112.615 85.152H128.897C129.078 84.4234 129.168 83.6948 129.168 82.8752Z" fill="#7D4533"/>
<path d="M78.4245 78.0483C81.0477 78.0483 83.2186 80.143 83.2186 82.8751C83.2186 83.5035 83.0558 84.0773 82.902 84.6419L82.7663 85.1519H74.1732C73.8128 84.448 73.6266 83.667 73.6304 82.8751C73.6304 80.2341 75.7109 78.0483 78.4245 78.0483ZM120.667 78.0483C118.044 78.0483 115.873 80.143 115.873 82.8751C115.873 83.6948 116.054 84.4233 116.325 85.1519H124.918C125.28 84.4233 125.461 83.6948 125.461 82.8751C125.461 80.2341 123.38 78.0483 120.667 78.0483Z" fill="black"/>
<path d="M76.9783 79.5052C76.9783 79.9158 76.8163 80.3096 76.5279 80.6C76.2395 80.8903 75.8484 81.0535 75.4406 81.0535C75.0327 81.0535 74.6416 80.8903 74.3532 80.6C74.0648 80.3096 73.9028 79.9158 73.9028 79.5052C73.9028 79.0946 74.0648 78.7008 74.3532 78.4105C74.6416 78.1201 75.0327 77.957 75.4406 77.957C75.8484 77.957 76.2395 78.1201 76.5279 78.4105C76.8163 78.7008 76.9783 79.0946 76.9783 79.5052ZM119.311 79.5052C119.311 79.7086 119.271 79.9099 119.194 80.0977C119.117 80.2856 119.003 80.4562 118.861 80.6C118.718 80.7438 118.548 80.8578 118.362 80.9356C118.175 81.0134 117.975 81.0535 117.773 81.0535C117.571 81.0535 117.371 81.0134 117.185 80.9356C116.998 80.8578 116.829 80.7438 116.686 80.6C116.543 80.4562 116.43 80.2856 116.353 80.0977C116.275 79.9099 116.236 79.7086 116.236 79.5052C116.236 79.0946 116.398 78.7008 116.686 78.4105C116.974 78.1201 117.365 77.957 117.773 77.957C118.181 77.957 118.572 78.1201 118.861 78.4105C119.149 78.7008 119.311 79.0946 119.311 79.5052Z" fill="black"/>
<path d="M99.5014 111.89C94.7263 111.912 90.0249 110.705 85.8428 108.384C84.4679 107.61 83.093 109.258 83.9161 110.625C85.5308 113.339 87.8135 115.588 90.5436 117.154C93.2738 118.721 96.359 119.552 99.5014 119.568C106.014 119.568 111.794 115.97 115.096 110.625C115.91 109.258 114.444 107.61 113.169 108.384C108.987 110.705 104.277 111.912 99.5014 111.89Z" fill="#990838"/>
<path d="M96.2605 80.7256L91.8011 96.5903C90.8694 99.8233 93.0674 103.147 96.1791 103.147H102.827C105.939 103.147 108.128 99.8233 107.196 96.5903L102.737 80.7256C101.733 77.2194 97.2645 77.2194 96.2605 80.7256Z" fill="#E5AF93"/>
<path d="M131.612 65.6624C132.064 65.9356 132.426 66.0267 132.878 66.0267C133.783 66.0267 134.687 65.5713 135.049 64.5696C135.773 63.3856 135.32 61.8374 134.145 61.1088L134.063 61.0633C133.131 60.5624 125.262 56.3549 116.144 58.0124C114.697 58.2856 113.792 59.6517 114.064 61.0178C114.335 62.4749 115.692 63.3856 117.049 63.1124C123.996 61.8647 130.345 65.0249 131.44 65.5805L131.612 65.6624ZM63.6804 64.7517C64.1327 65.5713 64.9468 66.0267 65.8513 66.0267C66.2263 66.0056 66.5928 65.9064 66.9277 65.7353L67.1177 65.6624C67.2081 65.5713 74.0827 61.7464 81.6809 63.1124C83.0377 63.3856 84.3945 62.4749 84.6659 61.1088C84.8468 59.6517 83.9422 58.3767 82.5854 58.1035C73.4676 56.4369 65.598 60.6535 64.6664 61.1544L64.585 61.1999C64.2896 61.3692 64.0312 61.5965 63.8249 61.8684C63.6187 62.1403 63.4689 62.4513 63.3845 62.7827C63.3001 63.1141 63.2828 63.4592 63.3337 63.7975C63.3845 64.1357 63.5024 64.4603 63.6804 64.7517Z" fill="black"/>
<path d="M99.6816 0C139.219 0 157.618 23.9518 157.527 23.9518C164.483 32.2393 168.047 43.0768 167.224 53.9143L164.936 96.4446C164.212 114.021 156.976 129.959 144.619 141.343C132.634 152.454 116.615 158.555 99.5912 158.555C82.5676 158.555 66.5571 152.454 54.5629 141.343C42.2068 129.959 34.9795 114.021 34.2468 96.5357L31.7774 54.3696C30.986 43.3346 34.4967 32.4234 41.5646 23.9518C41.5646 23.9518 59.9721 0 99.6816 0ZM52.6452 95.625C53.7397 122.4 74.5172 140.341 99.6816 140.341C124.846 140.341 145.632 122.4 146.628 95.5339L148.002 69.6696C148.076 68.4114 147.839 67.1545 147.314 66.0105C146.788 64.8666 145.99 63.8711 144.99 63.1125L110.391 37.3393C103.897 32.5125 95.0141 32.5125 88.61 37.3393L54.1106 63.1125C53.1092 63.8701 52.3094 64.8651 51.7823 66.0092C51.2552 67.1532 51.0172 68.4106 51.0894 69.6696L52.6452 95.625Z" fill="#8D65C5"/>
<path d="M150.273 148.419C147.011 159.289 140.387 168.826 131.365 175.641C122.344 182.456 111.396 186.192 100.118 186.304C88.8407 186.417 77.8218 182.901 68.6675 176.268C59.5132 169.635 52.7019 160.233 49.2262 149.43C51.9217 151.889 54.9791 154.275 58.335 156.452C70.525 164.349 84.725 168.524 99.2204 168.473C124.15 168.473 140.242 158.528 150.264 148.465L150.273 148.419Z" fill="#8D65C5"/>
<path d="M48.5749 241.43C31.5695 241.43 15.4686 237.241 1.26721 229.955C5.7628 201.632 22.0718 177.261 44.9115 162.18C51.9037 175.923 68.493 194.811 99.6365 194.811C118.442 194.811 130.88 189.183 139.482 181.806C141.43 180.118 143.178 178.382 144.728 176.597C136.89 195.783 123.564 212.19 106.443 223.734C89.3225 235.278 69.1802 241.437 48.5749 241.43Z" fill="#8D65C5"/>
</svg>
